<mxfile host="app.diagrams.net" modified="2024-04-29T12:21:55.111Z" agent="Mozilla/5.0 (Windows NT 10.0; Win64; x64) AppleWebKit/537.36 (KHTML, like Gecko) Chrome/124.0.0.0 Safari/537.36" etag="Qx-yvj98uFZfLZtvmMt9" version="24.3.1" type="onedrive">
  <diagram name="1 oldal" id="8mYi1tPqacZL2r3-6wt7">
    <mxGraphModel grid="1" page="1" gridSize="10" guides="1" tooltips="1" connect="1" arrows="1" fold="1" pageScale="1" pageWidth="827" pageHeight="1169" math="0" shadow="0">
      <root>
        <mxCell id="0" />
        <mxCell id="1" parent="0" />
        <mxCell id="DyulirkdYvsF7uV6ZFTi-12" style="rounded=0;orthogonalLoop=1;jettySize=auto;html=1;endArrow=none;endFill=0;fillColor=#dae8fc;strokeColor=#6c8ebf;fontSize=45;strokeWidth=4;" edge="1" parent="1">
          <mxGeometry relative="1" as="geometry">
            <mxPoint x="530" y="1420" as="sourcePoint" />
            <mxPoint x="530" y="1090" as="targetPoint" />
            <Array as="points">
              <mxPoint x="530" y="1140" />
            </Array>
          </mxGeometry>
        </mxCell>
        <mxCell id="P37fnWtLudTasc3SdAV7-1" value="" style="whiteSpace=wrap;html=1;container=0;fontSize=45;" vertex="1" parent="1">
          <mxGeometry x="10" y="40" width="2840.57134972013" height="946.8553645680015" as="geometry" />
        </mxCell>
        <mxCell id="P37fnWtLudTasc3SdAV7-2" value="" style="whiteSpace=wrap;html=1;container=0;fontSize=45;" vertex="1" parent="1">
          <mxGeometry x="34.567032562667336" y="1059.6903926116938" width="2840.57134972013" height="946.8553645680015" as="geometry" />
        </mxCell>
        <mxCell id="P37fnWtLudTasc3SdAV7-3" value="" style="whiteSpace=wrap;html=1;container=0;fontSize=45;" vertex="1" parent="1">
          <mxGeometry x="34.567032562667336" y="2152.21581326708" width="2840.57134972013" height="946.8553645680015" as="geometry" />
        </mxCell>
        <mxCell id="P37fnWtLudTasc3SdAV7-4" value="Porta" style="whiteSpace=wrap;html=1;container=0;fontSize=45;align=left;" vertex="1" parent="1">
          <mxGeometry x="20" y="659.0977383713856" width="182.08790703334168" height="327.7576261966159" as="geometry" />
        </mxCell>
        <mxCell id="P37fnWtLudTasc3SdAV7-5" value="DÖK szoba" style="whiteSpace=wrap;html=1;container=0;fontSize=45;" vertex="1" parent="1">
          <mxGeometry x="20" y="40" width="327.758232660015" height="218.50508413107727" as="geometry" />
        </mxCell>
        <mxCell id="P37fnWtLudTasc3SdAV7-6" value="A6" style="whiteSpace=wrap;html=1;container=0;fontSize=45;" vertex="1" parent="1">
          <mxGeometry x="20" y="258.5050841310773" width="327.758232660015" height="400.5926542403084" as="geometry" />
        </mxCell>
        <mxCell id="P37fnWtLudTasc3SdAV7-7" value="" style="verticalLabelPosition=bottom;html=1;verticalAlign=top;align=center;shape=mxgraph.floorplan.stairsRest;rotation=-90;container=0;fontSize=45;" vertex="1" parent="1">
          <mxGeometry x="603.2639838092" y="88.36245862101177" width="406.27453817279195" height="316.39536182179984" as="geometry" />
        </mxCell>
        <mxCell id="P37fnWtLudTasc3SdAV7-9" value="Fiú WC" style="whiteSpace=wrap;html=1;container=0;fontSize=45;" vertex="1" parent="1">
          <mxGeometry x="966.8571165733766" y="40" width="182.08790703334168" height="400.5926542403084" as="geometry" />
        </mxCell>
        <mxCell id="P37fnWtLudTasc3SdAV7-10" value="Lány WC" style="whiteSpace=wrap;html=1;container=0;fontSize=45;" vertex="1" parent="1">
          <mxGeometry x="1148.9450236067185" y="40" width="182.08790703334168" height="400.5926542403084" as="geometry" />
        </mxCell>
        <mxCell id="P37fnWtLudTasc3SdAV7-11" value="" style="whiteSpace=wrap;html=1;fillColor=#d5e8d4;strokeColor=#82b366;container=0;fontSize=45;" vertex="1" parent="1">
          <mxGeometry x="1331.03293064006" y="40" width="1529.53841908007" height="400.5926542403084" as="geometry" />
        </mxCell>
        <mxCell id="P37fnWtLudTasc3SdAV7-12" value="" style="whiteSpace=wrap;html=1;fillColor=#d5e8d4;strokeColor=#82b366;container=0;fontSize=45;" vertex="1" parent="1">
          <mxGeometry x="1345.5999632027274" y="2152.21581326708" width="1529.53841908007" height="400.5926542403084" as="geometry" />
        </mxCell>
        <mxCell id="P37fnWtLudTasc3SdAV7-15" value="" style="whiteSpace=wrap;html=1;fillColor=#d5e8d4;strokeColor=#82b366;container=0;fontSize=45;" vertex="1" parent="1">
          <mxGeometry x="1331.03293064006" y="1059.6903926116938" width="1544.1054516427375" height="400.5926542403084" as="geometry" />
        </mxCell>
        <mxCell id="P37fnWtLudTasc3SdAV7-16" value="Tanári WC" style="whiteSpace=wrap;html=1;container=0;fontSize=45;" vertex="1" parent="1">
          <mxGeometry x="1148.9450236067185" y="1059.6903926116938" width="182.08790703334168" height="400.5926542403084" as="geometry" />
        </mxCell>
        <mxCell id="P37fnWtLudTasc3SdAV7-17" value="Lány WC" style="whiteSpace=wrap;html=1;container=0;fontSize=45;" vertex="1" parent="1">
          <mxGeometry x="966.8571165733766" y="1059.6903926116938" width="182.08790703334168" height="400.5926542403084" as="geometry" />
        </mxCell>
        <mxCell id="P37fnWtLudTasc3SdAV7-18" value="Fiú WC" style="whiteSpace=wrap;html=1;container=0;fontSize=45;" vertex="1" parent="1">
          <mxGeometry x="966.8571165733766" y="2152.21581326708" width="378.7428466293507" height="400.5926542403084" as="geometry" />
        </mxCell>
        <mxCell id="P37fnWtLudTasc3SdAV7-22" value="" style="verticalLabelPosition=bottom;html=1;verticalAlign=top;align=center;shape=mxgraph.floorplan.stairsRest;rotation=-90;container=0;fontSize=45;" vertex="1" parent="1">
          <mxGeometry x="603.2639838092" y="1101.789038820948" width="406.27453817279195" height="316.39536182179984" as="geometry" />
        </mxCell>
        <mxCell id="P37fnWtLudTasc3SdAV7-23" value="" style="verticalLabelPosition=bottom;html=1;verticalAlign=top;align=center;shape=mxgraph.floorplan.stairsRest;rotation=-90;container=0;fontSize=45;" vertex="1" parent="1">
          <mxGeometry x="603.2639838092" y="2194.3144594763344" width="406.27453817279195" height="316.39536182179984" as="geometry" />
        </mxCell>
        <mxCell id="P37fnWtLudTasc3SdAV7-25" value="Tornaterem" style="whiteSpace=wrap;html=1;container=0;fontSize=45;" vertex="1" parent="1">
          <mxGeometry x="2569.2306984667835" y="40" width="291.34065125334666" height="582.6802243495395" as="geometry" />
        </mxCell>
        <mxCell id="P37fnWtLudTasc3SdAV7-26" value="Fiúöltöző" style="whiteSpace=wrap;html=1;container=0;fontSize=45;" vertex="1" parent="1">
          <mxGeometry x="2569.2306984667835" y="622.6802243495395" width="291.34065125334666" height="364.1751402184621" as="geometry" />
        </mxCell>
        <mxCell id="P37fnWtLudTasc3SdAV7-27" value="Tesi szertár" style="whiteSpace=wrap;html=1;container=0;fontSize=45;" vertex="1" parent="1">
          <mxGeometry x="2350.7252100267733" y="768.3502804369242" width="218.50548844001" height="218.50508413107727" as="geometry" />
        </mxCell>
        <mxCell id="P37fnWtLudTasc3SdAV7-28" value="Tesi tanári" style="whiteSpace=wrap;html=1;container=0;fontSize=45;" vertex="1" parent="1">
          <mxGeometry x="2350.7252100267733" y="222.08757010923105" width="218.50548844001" height="218.50508413107727" as="geometry" />
        </mxCell>
        <mxCell id="P37fnWtLudTasc3SdAV7-32" value="" style="verticalLabelPosition=bottom;html=1;verticalAlign=top;align=center;shape=mxgraph.floorplan.stairsRest;rotation=90;container=0;fontSize=45;" vertex="1" parent="1">
          <mxGeometry x="2168.6373029934316" y="804.7677944587705" width="218.50548844001" height="145.67005608738486" as="geometry" />
        </mxCell>
        <mxCell id="P37fnWtLudTasc3SdAV7-33" value="A2" style="whiteSpace=wrap;html=1;container=0;fontSize=45;" vertex="1" parent="1">
          <mxGeometry x="1731.6263261134116" y="659.0977383713856" width="437.01097688002" height="327.7576261966159" as="geometry" />
        </mxCell>
        <mxCell id="P37fnWtLudTasc3SdAV7-34" value="A3" style="whiteSpace=wrap;html=1;container=0;fontSize=45;" vertex="1" parent="1">
          <mxGeometry x="1221.780186420055" y="659.0977383713856" width="400.5933954733517" height="327.7576261966159" as="geometry" />
        </mxCell>
        <mxCell id="P37fnWtLudTasc3SdAV7-35" value="A4" style="whiteSpace=wrap;html=1;container=0;fontSize=45;" vertex="1" parent="1">
          <mxGeometry x="748.3516281333667" y="659.0977383713856" width="473.4285582866883" height="327.7576261966159" as="geometry" />
        </mxCell>
        <mxCell id="P37fnWtLudTasc3SdAV7-36" value="Tanári" style="whiteSpace=wrap;html=1;container=0;fontSize=45;" vertex="1" parent="1">
          <mxGeometry x="34.567032562667336" y="1059.6886412095093" width="604.5318513506944" height="946.8553645680015" as="geometry" />
        </mxCell>
        <mxCell id="P37fnWtLudTasc3SdAV7-37" value="Pihenő szoba" style="whiteSpace=wrap;html=1;container=0;fontSize=45;" vertex="1" parent="1">
          <mxGeometry x="2459.9779542467786" y="1460.2830468520024" width="415.160428036019" height="218.50508413107727" as="geometry" />
        </mxCell>
        <mxCell id="P37fnWtLudTasc3SdAV7-38" value="A12" style="whiteSpace=wrap;html=1;container=0;fontSize=45;" vertex="1" parent="1">
          <mxGeometry x="1950.1318145534217" y="1678.7881309830796" width="509.84613969335663" height="327.7576261966159" as="geometry" />
        </mxCell>
        <mxCell id="P37fnWtLudTasc3SdAV7-39" value="A13" style="whiteSpace=wrap;html=1;container=0;fontSize=45;" vertex="1" parent="1">
          <mxGeometry x="1440.285674860065" y="1678.7881309830796" width="509.84613969335663" height="327.7576261966159" as="geometry" />
        </mxCell>
        <mxCell id="P37fnWtLudTasc3SdAV7-41" value="" style="whiteSpace=wrap;html=1;container=0;fontSize=45;" vertex="1" parent="1">
          <mxGeometry x="1258.1977678267233" y="1678.7881309830796" width="72.83516281333667" height="327.7576261966159" as="geometry" />
        </mxCell>
        <mxCell id="P37fnWtLudTasc3SdAV7-43" value="Tanári megbeszélő" style="whiteSpace=wrap;html=1;container=0;fontSize=45;" vertex="1" parent="1">
          <mxGeometry x="639.0988839133616" y="1678.7881309830796" width="254.92306984667832" height="327.7576261966159" as="geometry" />
        </mxCell>
        <mxCell id="P37fnWtLudTasc3SdAV7-44" value="Igazgató helyettesi szoba" style="whiteSpace=wrap;html=1;container=0;fontSize=45;" vertex="1" parent="1">
          <mxGeometry x="34.567032562667336" y="1059.6903926116938" width="240.356037284011" height="182.08757010923105" as="geometry" />
        </mxCell>
        <mxCell id="P37fnWtLudTasc3SdAV7-45" value="Igazgató helyettesi szoba" style="whiteSpace=wrap;html=1;container=0;fontSize=45;" vertex="1" parent="1">
          <mxGeometry x="34.567032562667336" y="1236.096830533517" width="240.356037284011" height="182.08757010923105" as="geometry" />
        </mxCell>
        <mxCell id="P37fnWtLudTasc3SdAV7-47" value="" style="whiteSpace=wrap;html=1;container=0;fontSize=45;" vertex="1" parent="1">
          <mxGeometry x="1331.03293064006" y="1678.7881309830796" width="109.252744220005" height="327.7576261966159" as="geometry" />
        </mxCell>
        <mxCell id="P37fnWtLudTasc3SdAV7-49" value="Pszihológus" style="text;html=1;align=center;verticalAlign=middle;resizable=0;points=[];autosize=1;strokeColor=none;fillColor=none;rotation=90;container=0;fontSize=45;" vertex="1" parent="1">
          <mxGeometry x="1240.0015486570956" y="1780.0049104289567" width="270" height="70" as="geometry" />
        </mxCell>
        <mxCell id="P37fnWtLudTasc3SdAV7-51" value="Titkárság" style="whiteSpace=wrap;html=1;container=0;fontSize=45;" vertex="1" parent="1">
          <mxGeometry x="894.02195376004" y="1678.7881309830796" width="254.92306984667832" height="327.7576261966159" as="geometry" />
        </mxCell>
        <mxCell id="P37fnWtLudTasc3SdAV7-52" value="Takarító szoba" style="text;html=1;align=center;verticalAlign=middle;resizable=0;points=[];autosize=1;strokeColor=none;fillColor=none;rotation=90;container=0;fontSize=45;" vertex="1" parent="1">
          <mxGeometry x="1140.0041013648101" y="1811.3106730486181" width="320" height="70" as="geometry" />
        </mxCell>
        <mxCell id="P37fnWtLudTasc3SdAV7-59" value="" style="verticalLabelPosition=bottom;html=1;verticalAlign=top;align=center;shape=mxgraph.floorplan.stairsRest;rotation=90;fontStyle=1;container=0;fontSize=45;" vertex="1" parent="1">
          <mxGeometry x="2387.1427914334417" y="1747.9814076245873" width="327.83106782282835" height="189.37107291360027" as="geometry" />
        </mxCell>
        <mxCell id="P37fnWtLudTasc3SdAV7-60" value="" style="verticalLabelPosition=bottom;html=1;verticalAlign=top;align=center;shape=mxgraph.floorplan.stairsRest;rotation=-90;container=0;fontSize=45;" vertex="1" parent="1">
          <mxGeometry x="2623.8570705767856" y="1755.2649104289567" width="327.758232660015" height="182.08757010923105" as="geometry" />
        </mxCell>
        <mxCell id="P37fnWtLudTasc3SdAV7-61" value="A21" style="whiteSpace=wrap;html=1;container=0;fontSize=45;" vertex="1" parent="1">
          <mxGeometry x="2459.9779542467786" y="2552.8084675073887" width="415.160428036019" height="327.7576261966159" as="geometry" />
        </mxCell>
        <mxCell id="P37fnWtLudTasc3SdAV7-63" value="" style="whiteSpace=wrap;html=1;container=0;fontSize=45;" vertex="1" parent="1">
          <mxGeometry x="2496.3955356534466" y="2771.313551638466" width="218.50548844001" height="327.7576261966159" as="geometry" />
        </mxCell>
        <mxCell id="P37fnWtLudTasc3SdAV7-64" value="" style="verticalLabelPosition=bottom;html=1;verticalAlign=top;align=center;shape=mxgraph.floorplan.stairsRest;rotation=-90;container=0;fontSize=45;" vertex="1" parent="1">
          <mxGeometry x="2673.894827429548" y="2911.520980622574" width="227.64630137308376" height="149.31180748956947" as="geometry" />
        </mxCell>
        <mxCell id="P37fnWtLudTasc3SdAV7-65" value="" style="verticalLabelPosition=bottom;html=1;verticalAlign=top;align=center;shape=mxgraph.floorplan.stairsRest;rotation=90;container=0;fontSize=45;" vertex="1" parent="1">
          <mxGeometry x="2393.443033016795" y="2834.1337633261505" width="327.83106782282835" height="202.11720282124648" as="geometry" />
        </mxCell>
        <mxCell id="P37fnWtLudTasc3SdAV7-67" value="A22" style="whiteSpace=wrap;html=1;container=0;fontSize=45;" vertex="1" parent="1">
          <mxGeometry x="1913.7142331467533" y="2771.313551638466" width="546.263721100025" height="327.7576261966159" as="geometry" />
        </mxCell>
        <mxCell id="P37fnWtLudTasc3SdAV7-69" value="A23" style="whiteSpace=wrap;html=1;container=0;fontSize=45;" vertex="1" parent="1">
          <mxGeometry x="1440.285674860065" y="2771.313551638466" width="473.4285582866883" height="327.7576261966159" as="geometry" />
        </mxCell>
        <mxCell id="P37fnWtLudTasc3SdAV7-70" value="A24" style="whiteSpace=wrap;html=1;container=0;fontSize=45;" vertex="1" parent="1">
          <mxGeometry x="930.4395351667083" y="2771.313551638466" width="509.84613969335663" height="327.7576261966159" as="geometry" />
        </mxCell>
        <mxCell id="P37fnWtLudTasc3SdAV7-71" value="A28 b" style="whiteSpace=wrap;html=1;container=0;fontSize=45;" vertex="1" parent="1">
          <mxGeometry x="420.5933954733517" y="2152.21581326708" width="218.50548844001" height="400.5926542403084" as="geometry" />
        </mxCell>
        <mxCell id="P37fnWtLudTasc3SdAV7-72" value="A28" style="whiteSpace=wrap;html=1;container=0;fontSize=45;" vertex="1" parent="1">
          <mxGeometry x="34.567032562667336" y="2152.21581326708" width="386.0263629106844" height="473.42768228400075" as="geometry" />
        </mxCell>
        <mxCell id="P37fnWtLudTasc3SdAV7-73" value="A27" style="whiteSpace=wrap;html=1;container=0;fontSize=45;" vertex="1" parent="1">
          <mxGeometry x="34.567032562667336" y="2625.6434955510813" width="386.0263629106844" height="473.42768228400075" as="geometry" />
        </mxCell>
        <mxCell id="P37fnWtLudTasc3SdAV7-74" value="" style="whiteSpace=wrap;html=1;container=0;fontSize=45;" vertex="1" parent="1">
          <mxGeometry x="420.5933954733517" y="2771.313551638466" width="254.92306984667832" height="327.7576261966159" as="geometry" />
        </mxCell>
        <mxCell id="P37fnWtLudTasc3SdAV7-75" value="" style="whiteSpace=wrap;html=1;container=0;fontSize=45;" vertex="1" parent="1">
          <mxGeometry x="675.51646532003" y="2771.313551638466" width="254.92306984667832" height="327.7576261966159" as="geometry" />
        </mxCell>
        <mxCell id="P37fnWtLudTasc3SdAV7-83" value="kémia szertár" style="text;html=1;align=center;verticalAlign=middle;resizable=0;points=[];autosize=1;strokeColor=none;fillColor=none;rotation=90;container=0;fontSize=45;" vertex="1" parent="1">
          <mxGeometry x="662.4400932100275" y="2887.9960937040046" width="290" height="70" as="geometry" />
        </mxCell>
        <mxCell id="P37fnWtLudTasc3SdAV7-84" value="Fizika szertár" style="text;html=1;align=center;verticalAlign=middle;resizable=0;points=[];autosize=1;strokeColor=none;fillColor=none;rotation=90;container=0;fontSize=45;" vertex="1" parent="1">
          <mxGeometry x="385.51581406668333" y="2887.9960937040046" width="290" height="70" as="geometry" />
        </mxCell>
        <mxCell id="P37fnWtLudTasc3SdAV7-86" value="+Szertár" style="text;html=1;align=center;verticalAlign=middle;resizable=0;points=[];autosize=1;strokeColor=none;fillColor=none;container=0;fontSize=45;" vertex="1" parent="1">
          <mxGeometry x="430.0046047700175" y="2370.000897398158" width="190" height="70" as="geometry" />
        </mxCell>
        <mxCell id="P37fnWtLudTasc3SdAV7-87" value="" style="whiteSpace=wrap;html=1;container=0;fontSize=45;" vertex="1" parent="1">
          <mxGeometry x="1622.3735818934067" y="659.0977383713856" width="109.252744220005" height="327.7576261966159" as="geometry" />
        </mxCell>
        <mxCell id="P37fnWtLudTasc3SdAV7-88" value="Térkép terem&lt;div style=&quot;font-size: 45px;&quot;&gt;&lt;br style=&quot;font-size: 45px;&quot;&gt;&lt;/div&gt;" style="text;html=1;align=center;verticalAlign=middle;resizable=0;points=[];autosize=1;strokeColor=none;fillColor=none;rotation=90;container=0;fontSize=45;" vertex="1" parent="1">
          <mxGeometry x="1510.0032562667334" y="757.6015234260012" width="290" height="120" as="geometry" />
        </mxCell>
        <mxCell id="P37fnWtLudTasc3SdAV7-90" value="" style="sketch=0;pointerEvents=1;shadow=0;dashed=0;html=1;strokeColor=none;fillColor=#434445;aspect=fixed;labelPosition=center;verticalLabelPosition=bottom;verticalAlign=top;align=center;outlineConnect=0;shape=mxgraph.vvd.laptop;container=0;fontSize=45;" vertex="1" parent="1">
          <mxGeometry x="1950.1318145534217" y="2998.0125764244585" width="87.25636359634352" height="62.82021168768471" as="geometry" />
        </mxCell>
        <mxCell id="P37fnWtLudTasc3SdAV7-91" value="" style="sketch=0;pointerEvents=1;shadow=0;dashed=0;html=1;strokeColor=none;fillColor=#434445;aspect=fixed;labelPosition=center;verticalLabelPosition=bottom;verticalAlign=top;align=center;outlineConnect=0;shape=mxgraph.vvd.laptop;container=0;fontSize=45;" vertex="1" parent="1">
          <mxGeometry x="1476.7032562667334" y="2998.0125764244585" width="87.25636359634352" height="62.82021168768471" as="geometry" />
        </mxCell>
        <mxCell id="P37fnWtLudTasc3SdAV7-92" value="" style="sketch=0;pointerEvents=1;shadow=0;dashed=0;html=1;strokeColor=none;fillColor=#434445;aspect=fixed;labelPosition=center;verticalLabelPosition=bottom;verticalAlign=top;align=center;outlineConnect=0;shape=mxgraph.vvd.laptop;container=0;fontSize=45;" vertex="1" parent="1">
          <mxGeometry x="952.4357543363361" y="2998.0125764244585" width="87.25636359634352" height="62.82021168768471" as="geometry" />
        </mxCell>
        <mxCell id="P37fnWtLudTasc3SdAV7-93" value="" style="sketch=0;pointerEvents=1;shadow=0;dashed=0;html=1;strokeColor=none;fillColor=#434445;aspect=fixed;labelPosition=center;verticalLabelPosition=bottom;verticalAlign=top;align=center;outlineConnect=0;shape=mxgraph.vvd.laptop;container=0;fontSize=45;" vertex="1" parent="1">
          <mxGeometry x="67.41569099148211" y="2662.061009572927" width="87.25636359634352" height="62.82021168768471" as="geometry" />
        </mxCell>
        <mxCell id="P37fnWtLudTasc3SdAV7-94" value="" style="sketch=0;pointerEvents=1;shadow=0;dashed=0;html=1;strokeColor=none;fillColor=#434445;aspect=fixed;labelPosition=center;verticalLabelPosition=bottom;verticalAlign=top;align=center;outlineConnect=0;shape=mxgraph.vvd.laptop;container=0;fontSize=45;" vertex="1" parent="1">
          <mxGeometry x="67.41569099148211" y="2194.3144594763344" width="87.25636359634352" height="62.82021168768471" as="geometry" />
        </mxCell>
        <mxCell id="P37fnWtLudTasc3SdAV7-95" value="" style="sketch=0;pointerEvents=1;shadow=0;dashed=0;html=1;strokeColor=none;fillColor=#434445;aspect=fixed;labelPosition=center;verticalLabelPosition=bottom;verticalAlign=top;align=center;outlineConnect=0;shape=mxgraph.vvd.laptop;container=0;fontSize=45;" vertex="1" parent="1">
          <mxGeometry x="2773.3148246697524" y="2562.8232838633962" width="87.25636359634352" height="62.82021168768471" as="geometry" />
        </mxCell>
        <mxCell id="P37fnWtLudTasc3SdAV7-96" value="" style="sketch=0;pointerEvents=1;shadow=0;dashed=0;html=1;strokeColor=none;fillColor=#434445;aspect=fixed;labelPosition=center;verticalLabelPosition=bottom;verticalAlign=top;align=center;outlineConnect=0;shape=mxgraph.vvd.laptop;container=0;fontSize=45;" vertex="1" parent="1">
          <mxGeometry x="1483.0399154314935" y="1897.293215114157" width="80.91971615654228" height="58.26802243495394" as="geometry" />
        </mxCell>
        <mxCell id="P37fnWtLudTasc3SdAV7-97" value="" style="sketch=0;pointerEvents=1;shadow=0;dashed=0;html=1;strokeColor=none;fillColor=#434445;aspect=fixed;labelPosition=center;verticalLabelPosition=bottom;verticalAlign=top;align=center;outlineConnect=0;shape=mxgraph.vvd.laptop;container=0;fontSize=45;" vertex="1" parent="1">
          <mxGeometry x="1986.5493959600901" y="1897.293215114157" width="80.91971615654228" height="58.26802243495394" as="geometry" />
        </mxCell>
        <mxCell id="P37fnWtLudTasc3SdAV7-98" value="" style="fontColor=#0066CC;verticalAlign=top;verticalLabelPosition=bottom;labelPosition=center;align=center;html=1;outlineConnect=0;fillColor=#CCCCCC;strokeColor=#6881B3;gradientColor=none;gradientDirection=north;strokeWidth=2;shape=mxgraph.networks.pc;container=0;fontSize=45;" vertex="1" parent="1">
          <mxGeometry x="1331.03293064006" y="1922.7854749294493" width="72.83516281333667" height="80.11853084806167" as="geometry" />
        </mxCell>
        <mxCell id="P37fnWtLudTasc3SdAV7-99" value="" style="fontColor=#0066CC;verticalAlign=top;verticalLabelPosition=bottom;labelPosition=center;align=center;html=1;outlineConnect=0;fillColor=#CCCCCC;strokeColor=#6881B3;gradientColor=none;gradientDirection=north;strokeWidth=2;shape=mxgraph.networks.pc;container=0;fontSize=45;" vertex="1" parent="1">
          <mxGeometry x="985.0659072767108" y="1715.2056450049256" width="72.83516281333667" height="72.83502804369243" as="geometry" />
        </mxCell>
        <mxCell id="P37fnWtLudTasc3SdAV7-100" value="" style="fontColor=#0066CC;verticalAlign=top;verticalLabelPosition=bottom;labelPosition=center;align=center;html=1;outlineConnect=0;fillColor=#CCCCCC;strokeColor=#6881B3;gradientColor=none;gradientDirection=north;strokeWidth=2;shape=mxgraph.networks.pc;container=0;fontSize=45;" vertex="1" parent="1">
          <mxGeometry x="202.08790703334168" y="1345.3493725990556" width="72.83516281333667" height="72.83502804369243" as="geometry" />
        </mxCell>
        <mxCell id="P37fnWtLudTasc3SdAV7-101" value="" style="fontColor=#0066CC;verticalAlign=top;verticalLabelPosition=bottom;labelPosition=center;align=center;html=1;outlineConnect=0;fillColor=#CCCCCC;strokeColor=#6881B3;gradientColor=none;gradientDirection=north;strokeWidth=2;shape=mxgraph.networks.pc;container=0;fontSize=45;" vertex="1" parent="1">
          <mxGeometry x="202.08790703334168" y="1163.2618024898245" width="72.83516281333667" height="72.83502804369243" as="geometry" />
        </mxCell>
        <mxCell id="P37fnWtLudTasc3SdAV7-102" value="" style="fontColor=#0066CC;verticalAlign=top;verticalLabelPosition=bottom;labelPosition=center;align=center;html=1;outlineConnect=0;fillColor=#CCCCCC;strokeColor=#6881B3;gradientColor=none;gradientDirection=north;strokeWidth=2;shape=mxgraph.networks.pc;container=0;fontSize=45;" vertex="1" parent="1">
          <mxGeometry x="67.41569099148218" y="1496.7005608738484" width="72.83516281333667" height="72.83502804369243" as="geometry" />
        </mxCell>
        <mxCell id="P37fnWtLudTasc3SdAV7-103" value="" style="fontColor=#0066CC;verticalAlign=top;verticalLabelPosition=bottom;labelPosition=center;align=center;html=1;outlineConnect=0;fillColor=#CCCCCC;strokeColor=#6881B3;gradientColor=none;gradientDirection=north;strokeWidth=2;shape=mxgraph.networks.pc;container=0;fontSize=45;" vertex="1" parent="1">
          <mxGeometry x="67.41569099148217" y="1569.535588917541" width="72.83516281333667" height="72.83502804369243" as="geometry" />
        </mxCell>
        <mxCell id="P37fnWtLudTasc3SdAV7-104" value="" style="fontColor=#0066CC;verticalAlign=top;verticalLabelPosition=bottom;labelPosition=center;align=center;html=1;outlineConnect=0;fillColor=#CCCCCC;strokeColor=#6881B3;gradientColor=none;gradientDirection=north;strokeWidth=2;shape=mxgraph.networks.pc;container=0;fontSize=45;" vertex="1" parent="1">
          <mxGeometry x="985.0659072767108" y="1864.5174524944953" width="72.83516281333667" height="72.83502804369243" as="geometry" />
        </mxCell>
        <mxCell id="P37fnWtLudTasc3SdAV7-106" value="" style="whiteSpace=wrap;html=1;container=0;fontSize=45;" vertex="1" parent="1">
          <mxGeometry x="1148.9450236067185" y="1678.7881309830796" width="109.252744220005" height="327.7576261966159" as="geometry" />
        </mxCell>
        <mxCell id="P37fnWtLudTasc3SdAV7-107" value="Igazgatói" style="text;html=1;align=center;verticalAlign=middle;resizable=0;points=[];autosize=1;strokeColor=none;fillColor=none;rotation=90;container=0;fontSize=45;" vertex="1" parent="1">
          <mxGeometry x="1094.7798607933819" y="1780.0049104289567" width="210" height="70" as="geometry" />
        </mxCell>
        <mxCell id="P37fnWtLudTasc3SdAV7-108" value="" style="fontColor=#0066CC;verticalAlign=top;verticalLabelPosition=bottom;labelPosition=center;align=center;html=1;outlineConnect=0;fillColor=#CCCCCC;strokeColor=#6881B3;gradientColor=none;gradientDirection=north;strokeWidth=2;shape=mxgraph.networks.pc;container=0;fontSize=45;" vertex="1" parent="1">
          <mxGeometry x="1163.366385843759" y="1926.4272263316338" width="72.83516281333667" height="72.83502804369243" as="geometry" />
        </mxCell>
        <mxCell id="P37fnWtLudTasc3SdAV7-117" value="" style="fontColor=#0066CC;verticalAlign=top;verticalLabelPosition=bottom;labelPosition=center;align=center;html=1;outlineConnect=0;fillColor=#CCCCCC;strokeColor=#6881B3;gradientColor=none;gradientDirection=north;strokeWidth=2;shape=mxgraph.networks.printer;container=0;fontSize=45;" vertex="1" parent="1">
          <mxGeometry x="347.758232660015" y="1059.6903926116938" width="72.83516281333667" height="85.79966303546966" as="geometry" />
        </mxCell>
        <mxCell id="P37fnWtLudTasc3SdAV7-118" value="" style="fontColor=#0066CC;verticalAlign=top;verticalLabelPosition=bottom;labelPosition=center;align=center;html=1;outlineConnect=0;fillColor=#CCCCCC;strokeColor=#6881B3;gradientColor=none;gradientDirection=north;strokeWidth=2;shape=mxgraph.networks.printer;container=0;fontSize=45;" vertex="1" parent="1">
          <mxGeometry x="34.567032562667336" y="1168.9429346772326" width="58.26813025066933" height="67.15389585628442" as="geometry" />
        </mxCell>
        <mxCell id="P37fnWtLudTasc3SdAV7-119" value="" style="sketch=0;pointerEvents=1;shadow=0;dashed=0;html=1;strokeColor=none;fillColor=#434445;aspect=fixed;labelPosition=center;verticalLabelPosition=bottom;verticalAlign=top;align=center;outlineConnect=0;shape=mxgraph.vvd.laptop;container=0;fontSize=45;" vertex="1" parent="1">
          <mxGeometry x="266.8383667743981" y="564.4122019145855" width="80.91971615654228" height="58.26802243495394" as="geometry" />
        </mxCell>
        <mxCell id="P37fnWtLudTasc3SdAV7-120" value="" style="sketch=0;pointerEvents=1;shadow=0;dashed=0;html=1;strokeColor=none;fillColor=#434445;aspect=fixed;labelPosition=center;verticalLabelPosition=bottom;verticalAlign=top;align=center;outlineConnect=0;shape=mxgraph.vvd.laptop;container=0;fontSize=45;" vertex="1" parent="1">
          <mxGeometry x="765.9413199527877" y="910.3785851221245" width="80.91971615654228" height="58.26802243495394" as="geometry" />
        </mxCell>
        <mxCell id="P37fnWtLudTasc3SdAV7-121" value="" style="sketch=0;pointerEvents=1;shadow=0;dashed=0;html=1;strokeColor=none;fillColor=#434445;aspect=fixed;labelPosition=center;verticalLabelPosition=bottom;verticalAlign=top;align=center;outlineConnect=0;shape=mxgraph.vvd.laptop;container=0;fontSize=45;" vertex="1" parent="1">
          <mxGeometry x="1236.2015486570958" y="910.3785851221245" width="80.91971615654228" height="58.26802243495394" as="geometry" />
        </mxCell>
        <mxCell id="P37fnWtLudTasc3SdAV7-122" value="" style="sketch=0;pointerEvents=1;shadow=0;dashed=0;html=1;strokeColor=none;fillColor=#434445;aspect=fixed;labelPosition=center;verticalLabelPosition=bottom;verticalAlign=top;align=center;outlineConnect=0;shape=mxgraph.vvd.laptop;container=0;fontSize=45;" vertex="1" parent="1">
          <mxGeometry x="1768.0439075200804" y="895.811579513386" width="80.91971615654228" height="58.26802243495394" as="geometry" />
        </mxCell>
        <mxCell id="P37fnWtLudTasc3SdAV7-123" value="" style="sketch=0;pointerEvents=1;shadow=0;dashed=0;html=1;strokeColor=none;fillColor=#434445;aspect=fixed;labelPosition=center;verticalLabelPosition=bottom;verticalAlign=top;align=center;outlineConnect=0;shape=mxgraph.vvd.laptop;container=0;fontSize=45;" vertex="1" parent="1">
          <mxGeometry x="2379.058088361161" y="222.08757010923105" width="80.91971615654228" height="58.26802243495394" as="geometry" />
        </mxCell>
        <mxCell id="P37fnWtLudTasc3SdAV7-124" value="" style="fontColor=#0066CC;verticalAlign=top;verticalLabelPosition=bottom;labelPosition=center;align=center;html=1;outlineConnect=0;fillColor=#CCCCCC;strokeColor=#6881B3;gradientColor=none;gradientDirection=north;strokeWidth=2;shape=mxgraph.networks.pc;container=0;fontSize=45;" vertex="1" parent="1">
          <mxGeometry x="263.9249602618645" y="40" width="83.8332723981505" height="72.83502804369243" as="geometry" />
        </mxCell>
        <mxCell id="P37fnWtLudTasc3SdAV7-125" value="" style="fontColor=#0066CC;verticalAlign=top;verticalLabelPosition=bottom;labelPosition=center;align=center;html=1;outlineConnect=0;fillColor=#CCCCCC;strokeColor=#6881B3;gradientColor=none;gradientDirection=north;strokeWidth=2;shape=mxgraph.networks.printer;container=0;fontSize=45;" vertex="1" parent="1">
          <mxGeometry x="165.67032562667333" y="40" width="61.90988839133617" height="72.83502804369243" as="geometry" />
        </mxCell>
        <mxCell id="P37fnWtLudTasc3SdAV7-126" value="" style="fontColor=#0066CC;verticalAlign=top;verticalLabelPosition=bottom;labelPosition=center;align=center;html=1;outlineConnect=0;fillColor=#CCCCCC;strokeColor=#6881B3;gradientColor=none;gradientDirection=north;strokeWidth=2;shape=mxgraph.networks.pc;container=0;fontSize=45;" vertex="1" parent="1">
          <mxGeometry x="20" y="892.1698281112014" width="94.68571165733768" height="94.68553645680014" as="geometry" />
        </mxCell>
        <mxCell id="P37fnWtLudTasc3SdAV7-127" value="Angol tanári" style="whiteSpace=wrap;html=1;container=0;fontSize=45;" vertex="1" parent="1">
          <mxGeometry x="529.8461396933567" y="659.0977383713856" width="236.71427914334416" height="327.7576261966159" as="geometry" />
        </mxCell>
        <mxCell id="P37fnWtLudTasc3SdAV7-128" value="" style="fontColor=#0066CC;verticalAlign=top;verticalLabelPosition=bottom;labelPosition=center;align=center;html=1;outlineConnect=0;fillColor=#CCCCCC;strokeColor=#6881B3;gradientColor=none;gradientDirection=north;strokeWidth=2;shape=mxgraph.networks.pc;container=0;fontSize=45;" vertex="1" parent="1">
          <mxGeometry x="529.8461396933567" y="884.8863253068322" width="109.252744220005" height="101.9690392611694" as="geometry" />
        </mxCell>
        <mxCell id="P37fnWtLudTasc3SdAV7-129" value="" style="fontColor=#0066CC;verticalAlign=top;verticalLabelPosition=bottom;labelPosition=center;align=center;html=1;outlineConnect=0;fillColor=#CCCCCC;strokeColor=#6881B3;gradientColor=none;gradientDirection=north;strokeWidth=2;shape=mxgraph.networks.pc;container=0;fontSize=45;" vertex="1" parent="1">
          <mxGeometry x="639.0988839133616" y="877.6028225024628" width="126.84243603942579" height="109.25254206553863" as="geometry" />
        </mxCell>
        <mxCell id="DyulirkdYvsF7uV6ZFTi-1" style="rounded=0;orthogonalLoop=1;jettySize=auto;html=1;endArrow=none;endFill=0;exitX=0.786;exitY=0.412;exitDx=0;exitDy=0;exitPerimeter=0;fillColor=#dae8fc;strokeColor=#6c8ebf;entryX=0;entryY=0.5;entryDx=0;entryDy=0;entryPerimeter=0;fontSize=45;strokeWidth=4;" edge="1" parent="1" source="P37fnWtLudTasc3SdAV7-36" target="P37fnWtLudTasc3SdAV7-102">
          <mxGeometry relative="1" as="geometry">
            <mxPoint x="620.897376726309" y="1496.7005608738486" as="sourcePoint" />
            <mxPoint x="129.252744220005" y="1496.7005608738484" as="targetPoint" />
            <Array as="points">
              <mxPoint x="70" y="1450" />
            </Array>
          </mxGeometry>
        </mxCell>
        <mxCell id="DyulirkdYvsF7uV6ZFTi-2" style="rounded=0;orthogonalLoop=1;jettySize=auto;html=1;endArrow=none;endFill=0;entryX=1;entryY=0.5;entryDx=0;entryDy=0;entryPerimeter=0;fillColor=#dae8fc;strokeColor=#6c8ebf;fontSize=45;strokeWidth=4;exitX=0.187;exitY=0.478;exitDx=0;exitDy=0;exitPerimeter=0;" edge="1" parent="1" source="DyulirkdYvsF7uV6ZFTi-7" target="P37fnWtLudTasc3SdAV7-103">
          <mxGeometry relative="1" as="geometry">
            <mxPoint x="480" y="1470" as="sourcePoint" />
            <mxPoint x="219.75043401557562" y="1620.5201085481256" as="targetPoint" />
            <Array as="points">
              <mxPoint x="160" y="1490" />
            </Array>
          </mxGeometry>
        </mxCell>
        <mxCell id="DyulirkdYvsF7uV6ZFTi-7" value="" style="strokeColor=#666666;html=1;verticalLabelPosition=bottom;labelBackgroundColor=#ffffff;verticalAlign=top;outlineConnect=0;shadow=0;dashed=0;shape=mxgraph.rackGeneral.rackCabinet3;fillColor2=#f4f4f4;container=1;collapsible=0;childLayout=rack;allowGaps=1;marginLeft=33;marginRight=9;marginTop=21;marginBottom=22;textColor=#666666;numDisp=ascend;" vertex="1" parent="1">
          <mxGeometry x="484.05" y="1418.18" width="128" height="90" as="geometry" />
        </mxCell>
        <mxCell id="DyulirkdYvsF7uV6ZFTi-10" value="" style="html=1;verticalLabelPosition=bottom;verticalAlign=top;outlineConnect=0;shadow=0;dashed=0;shape=mxgraph.rack.hpe_aruba.switches.jl255a_aruba_2930f_24g_poeplus_4sfpplus_switch;" vertex="1" parent="DyulirkdYvsF7uV6ZFTi-7">
          <mxGeometry x="33" y="21" width="86" height="15" as="geometry" />
        </mxCell>
        <mxCell id="DyulirkdYvsF7uV6ZFTi-11" value="" style="html=1;verticalLabelPosition=bottom;verticalAlign=top;outlineConnect=0;shadow=0;dashed=0;shape=mxgraph.rack.hpe_aruba.switches.jl255a_aruba_2930f_24g_poeplus_4sfpplus_switch;" vertex="1" parent="DyulirkdYvsF7uV6ZFTi-7">
          <mxGeometry x="33" y="36" width="86" height="15" as="geometry" />
        </mxCell>
        <mxCell id="P37fnWtLudTasc3SdAV7-46" value="" style="whiteSpace=wrap;html=1;container=0;fontSize=45;align=left;" vertex="1" parent="1">
          <mxGeometry x="420.5933954733517" y="1059.6903926116938" width="218.50548844001" height="358.49400803105414" as="geometry" />
        </mxCell>
        <mxCell id="P37fnWtLudTasc3SdAV7-109" value="" style="fontColor=#0066CC;verticalAlign=top;verticalLabelPosition=bottom;labelPosition=center;align=center;html=1;outlineConnect=0;fillColor=#CCCCCC;strokeColor=#6881B3;gradientColor=none;gradientDirection=north;strokeWidth=2;shape=mxgraph.networks.pc;container=0;fontSize=45;" vertex="1" parent="1">
          <mxGeometry x="566.263721100025" y="1345.3493725990556" width="72.83516281333667" height="72.83502804369243" as="geometry" />
        </mxCell>
        <mxCell id="P37fnWtLudTasc3SdAV7-110" value="" style="fontColor=#0066CC;verticalAlign=top;verticalLabelPosition=bottom;labelPosition=center;align=center;html=1;outlineConnect=0;fillColor=#CCCCCC;strokeColor=#6881B3;gradientColor=none;gradientDirection=north;strokeWidth=2;shape=mxgraph.networks.pc;container=0;fontSize=45;" vertex="1" parent="1">
          <mxGeometry x="419.9985582866883" y="1059.6893725990556" width="72.83516281333667" height="72.83502804369243" as="geometry" />
        </mxCell>
        <mxCell id="P37fnWtLudTasc3SdAV7-111" value="" style="fontColor=#0066CC;verticalAlign=top;verticalLabelPosition=bottom;labelPosition=center;align=center;html=1;outlineConnect=0;fillColor=#CCCCCC;strokeColor=#6881B3;gradientColor=none;gradientDirection=north;strokeWidth=2;shape=mxgraph.networks.pc;container=0;fontSize=45;" vertex="1" parent="1">
          <mxGeometry x="420.5933954733517" y="1345.3493725990556" width="72.83516281333667" height="72.83502804369243" as="geometry" />
        </mxCell>
        <mxCell id="P37fnWtLudTasc3SdAV7-112" value="" style="fontColor=#0066CC;verticalAlign=top;verticalLabelPosition=bottom;labelPosition=center;align=center;html=1;outlineConnect=0;fillColor=#CCCCCC;strokeColor=#6881B3;gradientColor=none;gradientDirection=north;strokeWidth=2;shape=mxgraph.networks.pc;container=0;fontSize=45;" vertex="1" parent="1">
          <mxGeometry x="420.5933954733517" y="1290.7231015662862" width="72.83516281333667" height="72.83502804369243" as="geometry" />
        </mxCell>
        <mxCell id="P37fnWtLudTasc3SdAV7-113" value="" style="fontColor=#0066CC;verticalAlign=top;verticalLabelPosition=bottom;labelPosition=center;align=center;html=1;outlineConnect=0;fillColor=#CCCCCC;strokeColor=#6881B3;gradientColor=none;gradientDirection=north;strokeWidth=2;shape=mxgraph.networks.pc;container=0;fontSize=45;" vertex="1" parent="1">
          <mxGeometry x="566.2685582866883" y="1280.0031015662862" width="72.83516281333667" height="72.83502804369243" as="geometry" />
        </mxCell>
        <mxCell id="P37fnWtLudTasc3SdAV7-114" value="" style="fontColor=#0066CC;verticalAlign=top;verticalLabelPosition=bottom;labelPosition=center;align=center;html=1;outlineConnect=0;fillColor=#CCCCCC;strokeColor=#6881B3;gradientColor=none;gradientDirection=north;strokeWidth=2;shape=mxgraph.networks.pc;container=0;fontSize=45;" vertex="1" parent="1">
          <mxGeometry x="566.263721100025" y="1132.5231015662862" width="72.83516281333667" height="72.83502804369243" as="geometry" />
        </mxCell>
        <mxCell id="P37fnWtLudTasc3SdAV7-115" value="" style="fontColor=#0066CC;verticalAlign=top;verticalLabelPosition=bottom;labelPosition=center;align=center;html=1;outlineConnect=0;fillColor=#CCCCCC;strokeColor=#6881B3;gradientColor=none;gradientDirection=north;strokeWidth=2;shape=mxgraph.networks.pc;container=0;fontSize=45;" vertex="1" parent="1">
          <mxGeometry x="566.263721100025" y="1059.6903926116938" width="72.83516281333667" height="72.83502804369243" as="geometry" />
        </mxCell>
        <mxCell id="DyulirkdYvsF7uV6ZFTi-13" value="&lt;font style=&quot;font-size: 29px;&quot;&gt;Tanári&amp;nbsp;&lt;/font&gt;&lt;div&gt;&lt;font style=&quot;font-size: 29px;&quot;&gt;konyha&lt;/font&gt;&lt;/div&gt;" style="text;html=1;align=center;verticalAlign=middle;resizable=0;points=[];autosize=1;strokeColor=none;fillColor=none;" vertex="1" parent="1">
          <mxGeometry x="420.59" y="1186.78" width="120" height="80" as="geometry" />
        </mxCell>
        <mxCell id="DyulirkdYvsF7uV6ZFTi-14" style="rounded=0;orthogonalLoop=1;jettySize=auto;html=1;endArrow=none;endFill=0;fillColor=#dae8fc;strokeColor=#6c8ebf;fontSize=45;strokeWidth=4;shape=link;" edge="1" parent="1" source="DyulirkdYvsF7uV6ZFTi-7">
          <mxGeometry relative="1" as="geometry">
            <mxPoint x="520" y="1460" as="sourcePoint" />
            <mxPoint x="550" y="1100" as="targetPoint" />
            <Array as="points">
              <mxPoint x="550" y="1180" />
            </Array>
          </mxGeometry>
        </mxCell>
        <mxCell id="DyulirkdYvsF7uV6ZFTi-15" style="rounded=0;orthogonalLoop=1;jettySize=auto;html=1;endArrow=none;endFill=0;fillColor=#dae8fc;strokeColor=#6c8ebf;fontSize=45;strokeWidth=4;" edge="1" parent="1" target="P37fnWtLudTasc3SdAV7-110">
          <mxGeometry relative="1" as="geometry">
            <mxPoint x="550" y="1100" as="sourcePoint" />
            <mxPoint x="500" y="1110" as="targetPoint" />
            <Array as="points">
              <mxPoint x="520" y="1100" />
            </Array>
          </mxGeometry>
        </mxCell>
        <mxCell id="DyulirkdYvsF7uV6ZFTi-16" style="rounded=0;orthogonalLoop=1;jettySize=auto;html=1;endArrow=none;endFill=0;fillColor=#dae8fc;strokeColor=#6c8ebf;fontSize=45;strokeWidth=4;" edge="1" parent="1">
          <mxGeometry relative="1" as="geometry">
            <mxPoint x="574.18" y="1097.11" as="sourcePoint" />
            <mxPoint x="550" y="1100" as="targetPoint" />
            <Array as="points">
              <mxPoint x="560" y="1100" />
            </Array>
          </mxGeometry>
        </mxCell>
        <mxCell id="DyulirkdYvsF7uV6ZFTi-19" style="rounded=0;orthogonalLoop=1;jettySize=auto;html=1;endArrow=none;endFill=0;fillColor=#dae8fc;strokeColor=#6c8ebf;fontSize=45;strokeWidth=4;" edge="1" parent="1">
          <mxGeometry relative="1" as="geometry">
            <mxPoint x="574.18" y="1163.26" as="sourcePoint" />
            <mxPoint x="550" y="1166.15" as="targetPoint" />
            <Array as="points">
              <mxPoint x="560" y="1166.15" />
            </Array>
          </mxGeometry>
        </mxCell>
        <mxCell id="DyulirkdYvsF7uV6ZFTi-20" style="rounded=0;orthogonalLoop=1;jettySize=auto;html=1;endArrow=none;endFill=0;fillColor=#dae8fc;strokeColor=#6c8ebf;fontSize=45;strokeWidth=4;" edge="1" parent="1">
          <mxGeometry relative="1" as="geometry">
            <mxPoint x="574.18" y="1314.98" as="sourcePoint" />
            <mxPoint x="550" y="1317.87" as="targetPoint" />
            <Array as="points">
              <mxPoint x="560" y="1317.87" />
            </Array>
          </mxGeometry>
        </mxCell>
        <mxCell id="DyulirkdYvsF7uV6ZFTi-21" style="rounded=0;orthogonalLoop=1;jettySize=auto;html=1;endArrow=none;endFill=0;fillColor=#dae8fc;strokeColor=#6c8ebf;fontSize=45;strokeWidth=4;" edge="1" parent="1" source="P37fnWtLudTasc3SdAV7-109">
          <mxGeometry relative="1" as="geometry">
            <mxPoint x="560" y="1377.873333333333" as="sourcePoint" />
            <mxPoint x="550" y="1382.8899999999999" as="targetPoint" />
            <Array as="points" />
          </mxGeometry>
        </mxCell>
        <mxCell id="DyulirkdYvsF7uV6ZFTi-22" style="rounded=0;orthogonalLoop=1;jettySize=auto;html=1;endArrow=none;endFill=0;fillColor=#dae8fc;strokeColor=#6c8ebf;fontSize=45;strokeWidth=4;" edge="1" parent="1">
          <mxGeometry relative="1" as="geometry">
            <mxPoint x="549.83" y="1317.42" as="sourcePoint" />
            <mxPoint x="492.83" y="1315.42" as="targetPoint" />
            <Array as="points">
              <mxPoint x="519.83" y="1317.42" />
            </Array>
          </mxGeometry>
        </mxCell>
        <mxCell id="DyulirkdYvsF7uV6ZFTi-23" style="rounded=0;orthogonalLoop=1;jettySize=auto;html=1;endArrow=none;endFill=0;fillColor=#dae8fc;strokeColor=#6c8ebf;fontSize=45;strokeWidth=4;" edge="1" parent="1">
          <mxGeometry relative="1" as="geometry">
            <mxPoint x="550.43" y="1382.77" as="sourcePoint" />
            <mxPoint x="493.43" y="1380.77" as="targetPoint" />
            <Array as="points">
              <mxPoint x="520.43" y="1382.77" />
            </Array>
          </mxGeometry>
        </mxCell>
        <mxCell id="DyulirkdYvsF7uV6ZFTi-24" style="rounded=0;orthogonalLoop=1;jettySize=auto;html=1;endArrow=none;endFill=0;fillColor=#dae8fc;strokeColor=#6c8ebf;fontSize=45;strokeWidth=4;shape=link;" edge="1" parent="1">
          <mxGeometry relative="1" as="geometry">
            <mxPoint x="383" y="1430" as="sourcePoint" />
            <mxPoint x="385.18" y="1163.26" as="targetPoint" />
            <Array as="points">
              <mxPoint x="385.18" y="1243.26" />
            </Array>
          </mxGeometry>
        </mxCell>
        <mxCell id="DyulirkdYvsF7uV6ZFTi-25" style="rounded=0;orthogonalLoop=1;jettySize=auto;html=1;endArrow=none;endFill=0;fillColor=#dae8fc;strokeColor=#6c8ebf;fontSize=45;strokeWidth=4;" edge="1" parent="1" target="P37fnWtLudTasc3SdAV7-117">
          <mxGeometry relative="1" as="geometry">
            <mxPoint x="380" y="1170" as="sourcePoint" />
            <mxPoint x="356" y="1149.73" as="targetPoint" />
            <Array as="points" />
          </mxGeometry>
        </mxCell>
        <mxCell id="DyulirkdYvsF7uV6ZFTi-26" style="rounded=0;orthogonalLoop=1;jettySize=auto;html=1;endArrow=none;endFill=0;fillColor=#dae8fc;strokeColor=#6c8ebf;fontSize=45;strokeWidth=4;shape=link;exitX=0.188;exitY=0.124;exitDx=0;exitDy=0;exitPerimeter=0;" edge="1" parent="1" source="DyulirkdYvsF7uV6ZFTi-7">
          <mxGeometry relative="1" as="geometry">
            <mxPoint x="500" y="1430" as="sourcePoint" />
            <mxPoint x="380" y="1430" as="targetPoint" />
            <Array as="points" />
          </mxGeometry>
        </mxCell>
        <mxCell id="DyulirkdYvsF7uV6ZFTi-27" style="rounded=0;orthogonalLoop=1;jettySize=auto;html=1;endArrow=none;endFill=0;fillColor=#dae8fc;strokeColor=#6c8ebf;fontSize=45;strokeWidth=4;entryX=1;entryY=0.5;entryDx=0;entryDy=0;entryPerimeter=0;" edge="1" parent="1" target="P37fnWtLudTasc3SdAV7-101">
          <mxGeometry relative="1" as="geometry">
            <mxPoint x="380" y="1200" as="sourcePoint" />
            <mxPoint x="320" y="1177.1499999999999" as="targetPoint" />
            <Array as="points" />
          </mxGeometry>
        </mxCell>
        <mxCell id="DyulirkdYvsF7uV6ZFTi-29" style="rounded=0;orthogonalLoop=1;jettySize=auto;html=1;endArrow=none;endFill=0;fillColor=#dae8fc;strokeColor=#6c8ebf;fontSize=45;strokeWidth=4;entryX=0.5;entryY=1;entryDx=0;entryDy=0;entryPerimeter=0;" edge="1" parent="1" target="P37fnWtLudTasc3SdAV7-118">
          <mxGeometry relative="1" as="geometry">
            <mxPoint x="379.92" y="1250" as="sourcePoint" />
            <mxPoint x="274.92" y="1250" as="targetPoint" />
            <Array as="points">
              <mxPoint x="64" y="1250" />
            </Array>
          </mxGeometry>
        </mxCell>
        <mxCell id="DyulirkdYvsF7uV6ZFTi-30" style="rounded=0;orthogonalLoop=1;jettySize=auto;html=1;endArrow=none;endFill=0;fillColor=#dae8fc;strokeColor=#6c8ebf;fontSize=45;strokeWidth=4;entryX=1;entryY=0.5;entryDx=0;entryDy=0;entryPerimeter=0;" edge="1" parent="1">
          <mxGeometry relative="1" as="geometry">
            <mxPoint x="379.92" y="1381.37" as="sourcePoint" />
            <mxPoint x="274.92" y="1381.37" as="targetPoint" />
            <Array as="points" />
          </mxGeometry>
        </mxCell>
        <mxCell id="DyulirkdYvsF7uV6ZFTi-32" style="rounded=0;orthogonalLoop=1;jettySize=auto;html=1;endArrow=none;endFill=0;fillColor=#dae8fc;strokeColor=#6c8ebf;fontSize=45;strokeWidth=4;shape=link;exitX=-0.022;exitY=0.102;exitDx=0;exitDy=0;exitPerimeter=0;dashed=1;" edge="1" parent="1" source="P37fnWtLudTasc3SdAV7-37">
          <mxGeometry relative="1" as="geometry">
            <mxPoint x="740" y="1480" as="sourcePoint" />
            <mxPoint x="612.05" y="1480" as="targetPoint" />
            <Array as="points" />
          </mxGeometry>
        </mxCell>
        <mxCell id="DyulirkdYvsF7uV6ZFTi-33" style="rounded=0;orthogonalLoop=1;jettySize=auto;html=1;endArrow=none;endFill=0;fillColor=#dae8fc;strokeColor=#6c8ebf;fontSize=45;strokeWidth=4;dashed=1;" edge="1" parent="1">
          <mxGeometry relative="1" as="geometry">
            <mxPoint x="1020" y="1480" as="sourcePoint" />
            <mxPoint x="1020" y="1680" as="targetPoint" />
            <Array as="points" />
          </mxGeometry>
        </mxCell>
        <mxCell id="DyulirkdYvsF7uV6ZFTi-34" style="rounded=0;orthogonalLoop=1;jettySize=auto;html=1;endArrow=none;endFill=0;fillColor=#dae8fc;strokeColor=#6c8ebf;fontSize=45;strokeWidth=4;entryX=0.5;entryY=0.07;entryDx=0;entryDy=0;entryPerimeter=0;" edge="1" parent="1" target="P37fnWtLudTasc3SdAV7-99">
          <mxGeometry relative="1" as="geometry">
            <mxPoint x="1021" y="1680" as="sourcePoint" />
            <mxPoint x="1080.0010700900475" y="2109.759532814884" as="targetPoint" />
            <Array as="points">
              <mxPoint x="1021" y="1680" />
            </Array>
          </mxGeometry>
        </mxCell>
        <mxCell id="DyulirkdYvsF7uV6ZFTi-35" style="rounded=0;orthogonalLoop=1;jettySize=auto;html=1;endArrow=none;endFill=0;fillColor=#dae8fc;strokeColor=#6c8ebf;fontSize=45;strokeWidth=4;entryX=0.5;entryY=0.07;entryDx=0;entryDy=0;entryPerimeter=0;exitX=0.465;exitY=0.004;exitDx=0;exitDy=0;exitPerimeter=0;" edge="1" parent="1" source="P37fnWtLudTasc3SdAV7-106" target="P37fnWtLudTasc3SdAV7-108">
          <mxGeometry relative="1" as="geometry">
            <mxPoint x="1203.05" y="1485.95" as="sourcePoint" />
            <mxPoint x="1204.05" y="1725.95" as="targetPoint" />
            <Array as="points" />
          </mxGeometry>
        </mxCell>
        <mxCell id="DyulirkdYvsF7uV6ZFTi-36" style="rounded=0;orthogonalLoop=1;jettySize=auto;html=1;endArrow=none;endFill=0;fillColor=#dae8fc;strokeColor=#6c8ebf;fontSize=45;strokeWidth=4;entryX=1;entryY=0.5;entryDx=0;entryDy=0;entryPerimeter=0;" edge="1" parent="1" target="P37fnWtLudTasc3SdAV7-104">
          <mxGeometry relative="1" as="geometry">
            <mxPoint x="1100" y="1680" as="sourcePoint" />
            <mxPoint x="1031" y="1725" as="targetPoint" />
            <Array as="points">
              <mxPoint x="1100" y="1680" />
              <mxPoint x="1100" y="1725" />
              <mxPoint x="1100" y="1901" />
            </Array>
          </mxGeometry>
        </mxCell>
        <mxCell id="DyulirkdYvsF7uV6ZFTi-37" style="rounded=0;orthogonalLoop=1;jettySize=auto;html=1;endArrow=none;endFill=0;fillColor=#dae8fc;strokeColor=#6c8ebf;fontSize=45;strokeWidth=4;dashed=1;" edge="1" parent="1">
          <mxGeometry relative="1" as="geometry">
            <mxPoint x="1100" y="1478.79" as="sourcePoint" />
            <mxPoint x="1100" y="1678.79" as="targetPoint" />
            <Array as="points" />
          </mxGeometry>
        </mxCell>
        <mxCell id="DyulirkdYvsF7uV6ZFTi-38" style="rounded=0;orthogonalLoop=1;jettySize=auto;html=1;endArrow=none;endFill=0;fillColor=#dae8fc;strokeColor=#6c8ebf;fontSize=45;strokeWidth=4;dashed=1;" edge="1" parent="1">
          <mxGeometry relative="1" as="geometry">
            <mxPoint x="1199.25" y="1478.79" as="sourcePoint" />
            <mxPoint x="1199.25" y="1678.79" as="targetPoint" />
            <Array as="points" />
          </mxGeometry>
        </mxCell>
        <mxCell id="DyulirkdYvsF7uV6ZFTi-39" style="rounded=0;orthogonalLoop=1;jettySize=auto;html=1;endArrow=none;endFill=0;fillColor=#dae8fc;strokeColor=#6c8ebf;fontSize=45;strokeWidth=4;dashed=1;" edge="1" parent="1">
          <mxGeometry relative="1" as="geometry">
            <mxPoint x="1384.75" y="1490" as="sourcePoint" />
            <mxPoint x="1384.75" y="1690" as="targetPoint" />
            <Array as="points" />
          </mxGeometry>
        </mxCell>
        <mxCell id="DyulirkdYvsF7uV6ZFTi-40" style="rounded=0;orthogonalLoop=1;jettySize=auto;html=1;endArrow=none;endFill=0;fillColor=#dae8fc;strokeColor=#6c8ebf;fontSize=45;strokeWidth=4;entryX=0.5;entryY=0.07;entryDx=0;entryDy=0;entryPerimeter=0;exitX=0.465;exitY=0.004;exitDx=0;exitDy=0;exitPerimeter=0;" edge="1" parent="1">
          <mxGeometry relative="1" as="geometry">
            <mxPoint x="1385.13" y="1678.79" as="sourcePoint" />
            <mxPoint x="1385.13" y="1930.79" as="targetPoint" />
            <Array as="points" />
          </mxGeometry>
        </mxCell>
        <mxCell id="DyulirkdYvsF7uV6ZFTi-41" style="rounded=0;orthogonalLoop=1;jettySize=auto;html=1;endArrow=none;endFill=0;fillColor=#dae8fc;strokeColor=#6c8ebf;fontSize=45;strokeWidth=4;dashed=1;" edge="1" parent="1">
          <mxGeometry relative="1" as="geometry">
            <mxPoint x="1519.8100000000002" y="1478.79" as="sourcePoint" />
            <mxPoint x="1519.8100000000002" y="1678.79" as="targetPoint" />
            <Array as="points" />
          </mxGeometry>
        </mxCell>
        <mxCell id="DyulirkdYvsF7uV6ZFTi-42" style="rounded=0;orthogonalLoop=1;jettySize=auto;html=1;endArrow=none;endFill=0;fillColor=#dae8fc;strokeColor=#6c8ebf;fontSize=45;strokeWidth=4;exitX=0.465;exitY=0.004;exitDx=0;exitDy=0;exitPerimeter=0;" edge="1" parent="1" target="P37fnWtLudTasc3SdAV7-96">
          <mxGeometry relative="1" as="geometry">
            <mxPoint x="1519.8100000000002" y="1678.79" as="sourcePoint" />
            <mxPoint x="1519.8100000000002" y="1930.79" as="targetPoint" />
            <Array as="points" />
          </mxGeometry>
        </mxCell>
        <mxCell id="DyulirkdYvsF7uV6ZFTi-43" style="rounded=0;orthogonalLoop=1;jettySize=auto;html=1;endArrow=none;endFill=0;fillColor=#dae8fc;strokeColor=#6c8ebf;fontSize=45;strokeWidth=4;dashed=1;" edge="1" parent="1">
          <mxGeometry relative="1" as="geometry">
            <mxPoint x="2040.0000000000002" y="1478.79" as="sourcePoint" />
            <mxPoint x="2040.0000000000002" y="1678.79" as="targetPoint" />
            <Array as="points" />
          </mxGeometry>
        </mxCell>
        <mxCell id="DyulirkdYvsF7uV6ZFTi-44" style="rounded=0;orthogonalLoop=1;jettySize=auto;html=1;endArrow=none;endFill=0;fillColor=#dae8fc;strokeColor=#6c8ebf;fontSize=45;strokeWidth=4;exitX=0.465;exitY=0.004;exitDx=0;exitDy=0;exitPerimeter=0;" edge="1" parent="1">
          <mxGeometry relative="1" as="geometry">
            <mxPoint x="2040.0000000000002" y="1679.08" as="sourcePoint" />
            <mxPoint x="2040" y="1897" as="targetPoint" />
            <Array as="points" />
          </mxGeometry>
        </mxCell>
        <mxCell id="DyulirkdYvsF7uV6ZFTi-45" style="rounded=0;orthogonalLoop=1;jettySize=auto;html=1;endArrow=none;endFill=0;fillColor=#dae8fc;strokeColor=#6c8ebf;fontSize=45;strokeWidth=4;shape=link;exitX=-0.022;exitY=0.102;exitDx=0;exitDy=0;exitPerimeter=0;dashed=1;entryX=1;entryY=0.5;entryDx=0;entryDy=0;" edge="1" parent="1" target="P37fnWtLudTasc3SdAV7-6">
          <mxGeometry relative="1" as="geometry">
            <mxPoint x="2569.23" y="473" as="sourcePoint" />
            <mxPoint x="730.28" y="470" as="targetPoint" />
            <Array as="points" />
          </mxGeometry>
        </mxCell>
        <mxCell id="DyulirkdYvsF7uV6ZFTi-46" style="rounded=0;orthogonalLoop=1;jettySize=auto;html=1;endArrow=none;endFill=0;fillColor=#dae8fc;strokeColor=#6c8ebf;fontSize=45;strokeWidth=4;dashed=1;" edge="1" parent="1">
          <mxGeometry relative="1" as="geometry">
            <mxPoint x="1820" y="470" as="sourcePoint" />
            <mxPoint x="1820" y="650" as="targetPoint" />
            <Array as="points" />
          </mxGeometry>
        </mxCell>
        <mxCell id="DyulirkdYvsF7uV6ZFTi-47" style="rounded=0;orthogonalLoop=1;jettySize=auto;html=1;endArrow=none;endFill=0;fillColor=#dae8fc;strokeColor=#6c8ebf;fontSize=45;strokeWidth=4;dashed=1;" edge="1" parent="1">
          <mxGeometry relative="1" as="geometry">
            <mxPoint x="1276.04" y="460.1" as="sourcePoint" />
            <mxPoint x="1276.08" y="659.1" as="targetPoint" />
            <Array as="points">
              <mxPoint x="1276.08" y="570.1" />
            </Array>
          </mxGeometry>
        </mxCell>
        <mxCell id="DyulirkdYvsF7uV6ZFTi-48" style="rounded=0;orthogonalLoop=1;jettySize=auto;html=1;endArrow=none;endFill=0;fillColor=#dae8fc;strokeColor=#6c8ebf;fontSize=45;strokeWidth=4;dashed=1;" edge="1" parent="1">
          <mxGeometry relative="1" as="geometry">
            <mxPoint x="815.8900000000001" y="470.1" as="sourcePoint" />
            <mxPoint x="815.8900000000001" y="659.1" as="targetPoint" />
            <Array as="points" />
          </mxGeometry>
        </mxCell>
        <mxCell id="DyulirkdYvsF7uV6ZFTi-49" style="rounded=0;orthogonalLoop=1;jettySize=auto;html=1;endArrow=none;endFill=0;fillColor=#dae8fc;strokeColor=#6c8ebf;fontSize=45;strokeWidth=4;dashed=1;exitX=1.013;exitY=0.578;exitDx=0;exitDy=0;exitPerimeter=0;" edge="1" parent="1" source="P37fnWtLudTasc3SdAV7-5">
          <mxGeometry relative="1" as="geometry">
            <mxPoint x="400" y="270" as="sourcePoint" />
            <mxPoint x="400" y="459" as="targetPoint" />
            <Array as="points">
              <mxPoint x="400" y="166" />
              <mxPoint x="400" y="370" />
            </Array>
          </mxGeometry>
        </mxCell>
        <mxCell id="DyulirkdYvsF7uV6ZFTi-50" style="rounded=0;orthogonalLoop=1;jettySize=auto;html=1;endArrow=none;endFill=0;fillColor=#dae8fc;strokeColor=#6c8ebf;fontSize=45;strokeWidth=4;dashed=1;entryX=1;entryY=0.5;entryDx=0;entryDy=0;" edge="1" parent="1" target="P37fnWtLudTasc3SdAV7-4">
          <mxGeometry relative="1" as="geometry">
            <mxPoint x="396" y="465" as="sourcePoint" />
            <mxPoint x="395.76" y="757.6" as="targetPoint" />
            <Array as="points">
              <mxPoint x="395.76" y="464.6" />
              <mxPoint x="400" y="650" />
              <mxPoint x="400" y="823" />
            </Array>
          </mxGeometry>
        </mxCell>
        <mxCell id="DyulirkdYvsF7uV6ZFTi-51" style="rounded=0;orthogonalLoop=1;jettySize=auto;html=1;endArrow=none;endFill=0;fillColor=#dae8fc;strokeColor=#6c8ebf;fontSize=45;strokeWidth=4;" edge="1" parent="1">
          <mxGeometry relative="1" as="geometry">
            <mxPoint x="347.76" y="458.17999999999984" as="sourcePoint" />
            <mxPoint x="300" y="560" as="targetPoint" />
            <Array as="points">
              <mxPoint x="300" y="460" />
            </Array>
          </mxGeometry>
        </mxCell>
        <mxCell id="DyulirkdYvsF7uV6ZFTi-52" style="rounded=0;orthogonalLoop=1;jettySize=auto;html=1;endArrow=none;endFill=0;fillColor=#dae8fc;strokeColor=#6c8ebf;fontSize=45;strokeWidth=4;" edge="1" parent="1" target="P37fnWtLudTasc3SdAV7-124">
          <mxGeometry relative="1" as="geometry">
            <mxPoint x="350" y="170" as="sourcePoint" />
            <mxPoint x="300" y="258.51" as="targetPoint" />
            <Array as="points">
              <mxPoint x="306" y="170" />
            </Array>
          </mxGeometry>
        </mxCell>
        <mxCell id="DyulirkdYvsF7uV6ZFTi-53" style="rounded=0;orthogonalLoop=1;jettySize=auto;html=1;endArrow=none;endFill=0;fillColor=#dae8fc;strokeColor=#6c8ebf;fontSize=45;strokeWidth=4;dashed=1;" edge="1" parent="1">
          <mxGeometry relative="1" as="geometry">
            <mxPoint x="350" y="220" as="sourcePoint" />
            <mxPoint x="360.83" y="453" as="targetPoint" />
            <Array as="points">
              <mxPoint x="361" y="220" />
              <mxPoint x="360.83" y="364" />
            </Array>
          </mxGeometry>
        </mxCell>
        <mxCell id="DyulirkdYvsF7uV6ZFTi-54" style="rounded=0;orthogonalLoop=1;jettySize=auto;html=1;endArrow=none;endFill=0;fillColor=#dae8fc;strokeColor=#6c8ebf;fontSize=45;strokeWidth=4;entryX=0.5;entryY=1;entryDx=0;entryDy=0;entryPerimeter=0;" edge="1" parent="1" target="P37fnWtLudTasc3SdAV7-125">
          <mxGeometry relative="1" as="geometry">
            <mxPoint x="347.76" y="222.09" as="sourcePoint" />
            <mxPoint x="303.76" y="165.09" as="targetPoint" />
            <Array as="points">
              <mxPoint x="197" y="222" />
            </Array>
          </mxGeometry>
        </mxCell>
        <mxCell id="DyulirkdYvsF7uV6ZFTi-55" style="rounded=0;orthogonalLoop=1;jettySize=auto;html=1;endArrow=none;endFill=0;fillColor=#dae8fc;strokeColor=#6c8ebf;fontSize=45;strokeWidth=4;entryX=0.5;entryY=0.07;entryDx=0;entryDy=0;entryPerimeter=0;" edge="1" parent="1" target="P37fnWtLudTasc3SdAV7-126">
          <mxGeometry relative="1" as="geometry">
            <mxPoint x="202.42999999999998" y="819.9999999999998" as="sourcePoint" />
            <mxPoint x="154.67" y="921.8199999999999" as="targetPoint" />
            <Array as="points">
              <mxPoint x="70" y="820" />
            </Array>
          </mxGeometry>
        </mxCell>
        <mxCell id="DyulirkdYvsF7uV6ZFTi-56" style="rounded=0;orthogonalLoop=1;jettySize=auto;html=1;endArrow=none;endFill=0;fillColor=#dae8fc;strokeColor=#6c8ebf;fontSize=45;strokeWidth=4;dashed=1;" edge="1" parent="1">
          <mxGeometry relative="1" as="geometry">
            <mxPoint x="574.1800000000001" y="470.1" as="sourcePoint" />
            <mxPoint x="574.1800000000001" y="659.1" as="targetPoint" />
            <Array as="points" />
          </mxGeometry>
        </mxCell>
        <mxCell id="DyulirkdYvsF7uV6ZFTi-57" style="rounded=0;orthogonalLoop=1;jettySize=auto;html=1;endArrow=none;endFill=0;fillColor=#dae8fc;strokeColor=#6c8ebf;fontSize=45;strokeWidth=4;dashed=1;" edge="1" parent="1">
          <mxGeometry relative="1" as="geometry">
            <mxPoint x="730.0000000000001" y="470.1" as="sourcePoint" />
            <mxPoint x="730.0000000000001" y="659.1" as="targetPoint" />
            <Array as="points" />
          </mxGeometry>
        </mxCell>
        <mxCell id="DyulirkdYvsF7uV6ZFTi-58" style="rounded=0;orthogonalLoop=1;jettySize=auto;html=1;endArrow=none;endFill=0;fillColor=#dae8fc;strokeColor=#6c8ebf;fontSize=45;strokeWidth=4;entryX=0.183;entryY=-0.005;entryDx=0;entryDy=0;entryPerimeter=0;" edge="1" parent="1" target="P37fnWtLudTasc3SdAV7-127">
          <mxGeometry relative="1" as="geometry">
            <mxPoint x="573" y="890" as="sourcePoint" />
            <mxPoint x="572.8199999999999" y="659.1" as="targetPoint" />
            <Array as="points" />
          </mxGeometry>
        </mxCell>
        <mxCell id="DyulirkdYvsF7uV6ZFTi-59" style="rounded=0;orthogonalLoop=1;jettySize=auto;html=1;endArrow=none;endFill=0;fillColor=#dae8fc;strokeColor=#6c8ebf;fontSize=45;strokeWidth=4;entryX=0.183;entryY=-0.005;entryDx=0;entryDy=0;entryPerimeter=0;" edge="1" parent="1">
          <mxGeometry relative="1" as="geometry">
            <mxPoint x="730" y="884.89" as="sourcePoint" />
            <mxPoint x="730" y="651.89" as="targetPoint" />
            <Array as="points" />
          </mxGeometry>
        </mxCell>
        <mxCell id="DyulirkdYvsF7uV6ZFTi-60" style="rounded=0;orthogonalLoop=1;jettySize=auto;html=1;endArrow=none;endFill=0;fillColor=#dae8fc;strokeColor=#6c8ebf;fontSize=45;strokeWidth=4;entryX=0.183;entryY=-0.005;entryDx=0;entryDy=0;entryPerimeter=0;" edge="1" parent="1" source="P37fnWtLudTasc3SdAV7-35">
          <mxGeometry relative="1" as="geometry">
            <mxPoint x="816" y="900" as="sourcePoint" />
            <mxPoint x="815.89" y="659.1" as="targetPoint" />
            <Array as="points" />
          </mxGeometry>
        </mxCell>
        <mxCell id="DyulirkdYvsF7uV6ZFTi-61" style="rounded=0;orthogonalLoop=1;jettySize=auto;html=1;endArrow=none;endFill=0;fillColor=#dae8fc;strokeColor=#6c8ebf;fontSize=45;strokeWidth=4;entryX=0.183;entryY=-0.005;entryDx=0;entryDy=0;entryPerimeter=0;" edge="1" parent="1" source="P37fnWtLudTasc3SdAV7-35">
          <mxGeometry relative="1" as="geometry">
            <mxPoint x="815.89" y="892.1" as="sourcePoint" />
            <mxPoint x="815.89" y="659.1" as="targetPoint" />
            <Array as="points" />
          </mxGeometry>
        </mxCell>
        <mxCell id="DyulirkdYvsF7uV6ZFTi-62" style="rounded=0;orthogonalLoop=1;jettySize=auto;html=1;endArrow=none;endFill=0;fillColor=#dae8fc;strokeColor=#6c8ebf;fontSize=45;strokeWidth=4;entryX=0.183;entryY=-0.005;entryDx=0;entryDy=0;entryPerimeter=0;exitX=0.613;exitY=-0.012;exitDx=0;exitDy=0;exitPerimeter=0;" edge="1" parent="1" source="P37fnWtLudTasc3SdAV7-120">
          <mxGeometry relative="1" as="geometry">
            <mxPoint x="815.89" y="892.1" as="sourcePoint" />
            <mxPoint x="815.89" y="659.1" as="targetPoint" />
            <Array as="points" />
          </mxGeometry>
        </mxCell>
        <mxCell id="DyulirkdYvsF7uV6ZFTi-63" style="rounded=0;orthogonalLoop=1;jettySize=auto;html=1;endArrow=none;endFill=0;fillColor=#dae8fc;strokeColor=#6c8ebf;fontSize=45;strokeWidth=4;entryX=0.183;entryY=-0.005;entryDx=0;entryDy=0;entryPerimeter=0;exitX=0.613;exitY=-0.012;exitDx=0;exitDy=0;exitPerimeter=0;" edge="1" parent="1">
          <mxGeometry relative="1" as="geometry">
            <mxPoint x="1276.4" y="910.38" as="sourcePoint" />
            <mxPoint x="1276.29" y="659.48" as="targetPoint" />
            <Array as="points" />
          </mxGeometry>
        </mxCell>
        <mxCell id="DyulirkdYvsF7uV6ZFTi-64" style="rounded=0;orthogonalLoop=1;jettySize=auto;html=1;endArrow=none;endFill=0;fillColor=#dae8fc;strokeColor=#6c8ebf;fontSize=45;strokeWidth=4;entryX=0.183;entryY=-0.005;entryDx=0;entryDy=0;entryPerimeter=0;exitX=0.632;exitY=0.03;exitDx=0;exitDy=0;exitPerimeter=0;" edge="1" parent="1" source="P37fnWtLudTasc3SdAV7-122">
          <mxGeometry relative="1" as="geometry">
            <mxPoint x="1820.1100000000001" y="910" as="sourcePoint" />
            <mxPoint x="1820" y="659.1" as="targetPoint" />
            <Array as="points" />
          </mxGeometry>
        </mxCell>
        <mxCell id="DyulirkdYvsF7uV6ZFTi-65" style="rounded=0;orthogonalLoop=1;jettySize=auto;html=1;endArrow=none;endFill=0;fillColor=#dae8fc;strokeColor=#6c8ebf;fontSize=45;strokeWidth=4;dashed=1;" edge="1" parent="1">
          <mxGeometry relative="1" as="geometry">
            <mxPoint x="2410" y="440" as="sourcePoint" />
            <mxPoint x="2410" y="470" as="targetPoint" />
            <Array as="points" />
          </mxGeometry>
        </mxCell>
        <mxCell id="DyulirkdYvsF7uV6ZFTi-66" style="rounded=0;orthogonalLoop=1;jettySize=auto;html=1;endArrow=none;endFill=0;fillColor=#dae8fc;strokeColor=#6c8ebf;fontSize=45;strokeWidth=4;exitX=0.632;exitY=0.03;exitDx=0;exitDy=0;exitPerimeter=0;entryX=0.376;entryY=1.015;entryDx=0;entryDy=0;entryPerimeter=0;" edge="1" parent="1" target="P37fnWtLudTasc3SdAV7-123">
          <mxGeometry relative="1" as="geometry">
            <mxPoint x="2410" y="440.59" as="sourcePoint" />
            <mxPoint x="2411" y="201.69" as="targetPoint" />
            <Array as="points" />
          </mxGeometry>
        </mxCell>
        <mxCell id="DyulirkdYvsF7uV6ZFTi-67" style="rounded=0;orthogonalLoop=1;jettySize=auto;html=1;endArrow=none;endFill=0;fillColor=#dae8fc;strokeColor=#6c8ebf;fontSize=45;strokeWidth=4;shape=link;exitX=-0.022;exitY=0.102;exitDx=0;exitDy=0;exitPerimeter=0;dashed=1;" edge="1" parent="1">
          <mxGeometry relative="1" as="geometry">
            <mxPoint x="2459.98" y="2614" as="sourcePoint" />
            <mxPoint x="420" y="2614" as="targetPoint" />
            <Array as="points" />
          </mxGeometry>
        </mxCell>
        <mxCell id="DyulirkdYvsF7uV6ZFTi-68" style="rounded=0;orthogonalLoop=1;jettySize=auto;html=1;endArrow=none;endFill=0;fillColor=#dae8fc;strokeColor=#6c8ebf;fontSize=45;strokeWidth=4;dashed=1;" edge="1" parent="1">
          <mxGeometry relative="1" as="geometry">
            <mxPoint x="982.8399999999999" y="2610" as="sourcePoint" />
            <mxPoint x="983" y="2770" as="targetPoint" />
            <Array as="points" />
          </mxGeometry>
        </mxCell>
        <mxCell id="DyulirkdYvsF7uV6ZFTi-69" style="rounded=0;orthogonalLoop=1;jettySize=auto;html=1;endArrow=none;endFill=0;fillColor=#dae8fc;strokeColor=#6c8ebf;fontSize=45;strokeWidth=4;dashed=1;" edge="1" parent="1">
          <mxGeometry relative="1" as="geometry">
            <mxPoint x="1519.56" y="2613.47" as="sourcePoint" />
            <mxPoint x="1519.7199999999998" y="2773.47" as="targetPoint" />
            <Array as="points" />
          </mxGeometry>
        </mxCell>
        <mxCell id="DyulirkdYvsF7uV6ZFTi-70" style="rounded=0;orthogonalLoop=1;jettySize=auto;html=1;endArrow=none;endFill=0;fillColor=#dae8fc;strokeColor=#6c8ebf;fontSize=45;strokeWidth=4;dashed=1;" edge="1" parent="1">
          <mxGeometry relative="1" as="geometry">
            <mxPoint x="1992.99" y="2613.47" as="sourcePoint" />
            <mxPoint x="1993.1499999999999" y="2773.47" as="targetPoint" />
            <Array as="points" />
          </mxGeometry>
        </mxCell>
        <mxCell id="DyulirkdYvsF7uV6ZFTi-71" style="rounded=0;orthogonalLoop=1;jettySize=auto;html=1;endArrow=none;endFill=0;fillColor=#dae8fc;strokeColor=#6c8ebf;fontSize=45;strokeWidth=4;exitX=0.465;exitY=0.004;exitDx=0;exitDy=0;exitPerimeter=0;" edge="1" parent="1" target="P37fnWtLudTasc3SdAV7-91">
          <mxGeometry relative="1" as="geometry">
            <mxPoint x="1518.7400000000002" y="2771.31" as="sourcePoint" />
            <mxPoint x="1522" y="2990" as="targetPoint" />
            <Array as="points" />
          </mxGeometry>
        </mxCell>
        <mxCell id="DyulirkdYvsF7uV6ZFTi-72" style="rounded=0;orthogonalLoop=1;jettySize=auto;html=1;endArrow=none;endFill=0;fillColor=#dae8fc;strokeColor=#6c8ebf;fontSize=45;strokeWidth=4;exitX=0.465;exitY=0.004;exitDx=0;exitDy=0;exitPerimeter=0;" edge="1" parent="1">
          <mxGeometry relative="1" as="geometry">
            <mxPoint x="983.8100000000003" y="2771.31" as="sourcePoint" />
            <mxPoint x="985.07" y="2998" as="targetPoint" />
            <Array as="points" />
          </mxGeometry>
        </mxCell>
        <mxCell id="DyulirkdYvsF7uV6ZFTi-73" style="rounded=0;orthogonalLoop=1;jettySize=auto;html=1;endArrow=none;endFill=0;fillColor=#dae8fc;strokeColor=#6c8ebf;fontSize=45;strokeWidth=4;exitX=0.465;exitY=0.004;exitDx=0;exitDy=0;exitPerimeter=0;" edge="1" parent="1">
          <mxGeometry relative="1" as="geometry">
            <mxPoint x="1993.13" y="2771.32" as="sourcePoint" />
            <mxPoint x="1994.3899999999999" y="2998.01" as="targetPoint" />
            <Array as="points" />
          </mxGeometry>
        </mxCell>
        <mxCell id="DyulirkdYvsF7uV6ZFTi-74" style="rounded=0;orthogonalLoop=1;jettySize=auto;html=1;endArrow=none;endFill=0;fillColor=#dae8fc;strokeColor=#6c8ebf;fontSize=45;strokeWidth=4;exitX=0.465;exitY=0.004;exitDx=0;exitDy=0;exitPerimeter=0;entryX=0.077;entryY=0.751;entryDx=0;entryDy=0;entryPerimeter=0;" edge="1" parent="1" target="P37fnWtLudTasc3SdAV7-95">
          <mxGeometry relative="1" as="geometry">
            <mxPoint x="2459.9800000000005" y="2610" as="sourcePoint" />
            <mxPoint x="2461.24" y="2836.69" as="targetPoint" />
            <Array as="points">
              <mxPoint x="2650" y="2610" />
            </Array>
          </mxGeometry>
        </mxCell>
        <mxCell id="DyulirkdYvsF7uV6ZFTi-75" style="rounded=0;orthogonalLoop=1;jettySize=auto;html=1;endArrow=none;endFill=0;fillColor=#dae8fc;strokeColor=#6c8ebf;fontSize=45;strokeWidth=4;dashed=1;entryX=1.001;entryY=0.115;entryDx=0;entryDy=0;entryPerimeter=0;" edge="1" parent="1" target="P37fnWtLudTasc3SdAV7-73">
          <mxGeometry relative="1" as="geometry">
            <mxPoint x="480.17000000000013" y="2616.6899999999996" as="sourcePoint" />
            <mxPoint x="480.17000000000013" y="2816.6899999999996" as="targetPoint" />
            <Array as="points">
              <mxPoint x="480" y="2680" />
            </Array>
          </mxGeometry>
        </mxCell>
        <mxCell id="DyulirkdYvsF7uV6ZFTi-76" style="rounded=0;orthogonalLoop=1;jettySize=auto;html=1;endArrow=none;endFill=0;fillColor=#dae8fc;strokeColor=#6c8ebf;fontSize=45;strokeWidth=4;exitX=0.465;exitY=0.004;exitDx=0;exitDy=0;exitPerimeter=0;entryX=0.907;entryY=0.255;entryDx=0;entryDy=0;entryPerimeter=0;" edge="1" parent="1" target="P37fnWtLudTasc3SdAV7-93">
          <mxGeometry relative="1" as="geometry">
            <mxPoint x="418.74000000000024" y="2680" as="sourcePoint" />
            <mxPoint x="420" y="2906.69" as="targetPoint" />
            <Array as="points" />
          </mxGeometry>
        </mxCell>
        <mxCell id="DyulirkdYvsF7uV6ZFTi-77" style="rounded=0;orthogonalLoop=1;jettySize=auto;html=1;endArrow=none;endFill=0;fillColor=#dae8fc;strokeColor=#6c8ebf;fontSize=45;strokeWidth=4;exitX=0.465;exitY=0.004;exitDx=0;exitDy=0;exitPerimeter=0;" edge="1" parent="1" target="P37fnWtLudTasc3SdAV7-94">
          <mxGeometry relative="1" as="geometry">
            <mxPoint x="420.0000000000002" y="2612" as="sourcePoint" />
            <mxPoint x="148.26" y="2610" as="targetPoint" />
            <Array as="points">
              <mxPoint x="111" y="2612" />
            </Array>
          </mxGeometry>
        </mxCell>
        <mxCell id="DyulirkdYvsF7uV6ZFTi-80" value="" style="shape=cylinder3;whiteSpace=wrap;html=1;boundedLbl=1;backgroundOutline=1;size=15;" vertex="1" parent="1">
          <mxGeometry x="472" y="585" width="37.5" height="50" as="geometry" />
        </mxCell>
        <mxCell id="DyulirkdYvsF7uV6ZFTi-79" style="rounded=0;orthogonalLoop=1;jettySize=auto;html=1;endArrow=none;endFill=0;fillColor=#dae8fc;strokeColor=#6c8ebf;fontSize=45;strokeWidth=4;dashed=1;shape=link;" edge="1" parent="1">
          <mxGeometry relative="1" as="geometry">
            <mxPoint x="492.25000000000006" y="460" as="sourcePoint" />
            <mxPoint x="492" y="600" as="targetPoint" />
            <Array as="points" />
          </mxGeometry>
        </mxCell>
        <mxCell id="DyulirkdYvsF7uV6ZFTi-81" value="" style="shape=cylinder3;whiteSpace=wrap;html=1;boundedLbl=1;backgroundOutline=1;size=15;rotation=0;" vertex="1" parent="1">
          <mxGeometry x="511.77" y="1592.37" width="37.5" height="50" as="geometry" />
        </mxCell>
        <mxCell id="DyulirkdYvsF7uV6ZFTi-82" style="rounded=0;orthogonalLoop=1;jettySize=auto;html=1;endArrow=none;endFill=0;fillColor=#dae8fc;strokeColor=#6c8ebf;fontSize=45;strokeWidth=4;shape=link;entryX=0.362;entryY=0.964;entryDx=0;entryDy=0;entryPerimeter=0;" edge="1" parent="1" target="DyulirkdYvsF7uV6ZFTi-7">
          <mxGeometry relative="1" as="geometry">
            <mxPoint x="531" y="1600" as="sourcePoint" />
            <mxPoint x="530.77" y="1509.18" as="targetPoint" />
            <Array as="points">
              <mxPoint x="530.77" y="1589.18" />
            </Array>
          </mxGeometry>
        </mxCell>
        <mxCell id="DyulirkdYvsF7uV6ZFTi-83" value="" style="shape=cylinder3;whiteSpace=wrap;html=1;boundedLbl=1;backgroundOutline=1;size=15;rotation=0;" vertex="1" parent="1">
          <mxGeometry x="420.59" y="2721.3099999999995" width="37.5" height="50" as="geometry" />
        </mxCell>
        <mxCell id="DyulirkdYvsF7uV6ZFTi-84" style="rounded=0;orthogonalLoop=1;jettySize=auto;html=1;endArrow=none;endFill=0;fillColor=#dae8fc;strokeColor=#6c8ebf;fontSize=45;strokeWidth=4;shape=link;" edge="1" parent="1">
          <mxGeometry relative="1" as="geometry">
            <mxPoint x="438.98" y="2740.8199999999997" as="sourcePoint" />
            <mxPoint x="439" y="2620" as="targetPoint" />
            <Array as="points">
              <mxPoint x="438.75" y="2730" />
            </Array>
          </mxGeometry>
        </mxCell>
        <mxCell id="DyulirkdYvsF7uV6ZFTi-85" value="" style="shape=cylinder3;whiteSpace=wrap;html=1;boundedLbl=1;backgroundOutline=1;size=15;rotation=0;" vertex="1" parent="1">
          <mxGeometry x="549.27" y="1642.37" width="37.5" height="50" as="geometry" />
        </mxCell>
        <mxCell id="DyulirkdYvsF7uV6ZFTi-86" style="rounded=0;orthogonalLoop=1;jettySize=auto;html=1;endArrow=none;endFill=0;fillColor=#dae8fc;strokeColor=#6c8ebf;fontSize=45;strokeWidth=4;shape=link;entryX=0.652;entryY=0.954;entryDx=0;entryDy=0;entryPerimeter=0;" edge="1" parent="1" target="DyulirkdYvsF7uV6ZFTi-7">
          <mxGeometry relative="1" as="geometry">
            <mxPoint x="567.66" y="1660.36" as="sourcePoint" />
            <mxPoint x="570" y="1510" as="targetPoint" />
            <Array as="points">
              <mxPoint x="567.43" y="1649.54" />
            </Array>
          </mxGeometry>
        </mxCell>
        <mxCell id="DyulirkdYvsF7uV6ZFTi-87" value="g1" style="text;html=1;align=center;verticalAlign=middle;resizable=0;points=[];autosize=1;strokeColor=none;fillColor=none;" vertex="1" parent="1">
          <mxGeometry x="976.06" y="2971.18" width="40" height="30" as="geometry" />
        </mxCell>
        <mxCell id="DyulirkdYvsF7uV6ZFTi-88" value="g1" style="text;html=1;align=center;verticalAlign=middle;resizable=0;points=[];autosize=1;strokeColor=none;fillColor=none;" vertex="1" parent="1">
          <mxGeometry x="1523.96" y="2971.18" width="40" height="30" as="geometry" />
        </mxCell>
        <mxCell id="DyulirkdYvsF7uV6ZFTi-89" value="g1" style="text;html=1;align=center;verticalAlign=middle;resizable=0;points=[];autosize=1;strokeColor=none;fillColor=none;" vertex="1" parent="1">
          <mxGeometry x="140.25" y="2678.47" width="40" height="30" as="geometry" />
        </mxCell>
        <mxCell id="DyulirkdYvsF7uV6ZFTi-90" value="g1" style="text;html=1;align=center;verticalAlign=middle;resizable=0;points=[];autosize=1;strokeColor=none;fillColor=none;" vertex="1" parent="1">
          <mxGeometry x="114.67" y="2250" width="40" height="30" as="geometry" />
        </mxCell>
        <mxCell id="DyulirkdYvsF7uV6ZFTi-91" value="g1" style="text;html=1;align=center;verticalAlign=middle;resizable=0;points=[];autosize=1;strokeColor=none;fillColor=none;" vertex="1" parent="1">
          <mxGeometry x="67.42" y="1466.7" width="40" height="30" as="geometry" />
        </mxCell>
        <mxCell id="DyulirkdYvsF7uV6ZFTi-92" value="g1" style="text;html=1;align=center;verticalAlign=middle;resizable=0;points=[];autosize=1;strokeColor=none;fillColor=none;" vertex="1" parent="1">
          <mxGeometry x="125.67" y="1590" width="40" height="30" as="geometry" />
        </mxCell>
        <mxCell id="DyulirkdYvsF7uV6ZFTi-93" value="g1" style="text;html=1;align=center;verticalAlign=middle;resizable=0;points=[];autosize=1;strokeColor=none;fillColor=none;" vertex="1" parent="1">
          <mxGeometry x="263.92" y="1163.26" width="40" height="30" as="geometry" />
        </mxCell>
        <mxCell id="DyulirkdYvsF7uV6ZFTi-96" value="g1" style="text;html=1;align=center;verticalAlign=middle;resizable=0;points=[];autosize=1;strokeColor=none;fillColor=none;" vertex="1" parent="1">
          <mxGeometry x="27.420000000000016" y="1236.1000000000001" width="40" height="30" as="geometry" />
        </mxCell>
        <mxCell id="DyulirkdYvsF7uV6ZFTi-98" value="g1" style="text;html=1;align=center;verticalAlign=middle;resizable=0;points=[];autosize=1;strokeColor=none;fillColor=none;" vertex="1" parent="1">
          <mxGeometry x="263.92" y="1345.3500000000001" width="40" height="30" as="geometry" />
        </mxCell>
        <mxCell id="DyulirkdYvsF7uV6ZFTi-99" value="g1" style="text;html=1;align=center;verticalAlign=middle;resizable=0;points=[];autosize=1;strokeColor=none;fillColor=none;" vertex="1" parent="1">
          <mxGeometry x="347.76" y="1145.4900000000002" width="40" height="30" as="geometry" />
        </mxCell>
        <mxCell id="DyulirkdYvsF7uV6ZFTi-100" value="g1" style="text;html=1;align=center;verticalAlign=middle;resizable=0;points=[];autosize=1;strokeColor=none;fillColor=none;" vertex="1" parent="1">
          <mxGeometry x="484.05" y="1100.0000000000002" width="40" height="30" as="geometry" />
        </mxCell>
        <mxCell id="DyulirkdYvsF7uV6ZFTi-101" value="g1" style="text;html=1;align=center;verticalAlign=middle;resizable=0;points=[];autosize=1;strokeColor=none;fillColor=none;" vertex="1" parent="1">
          <mxGeometry x="549.2700000000001" y="1071.7900000000002" width="40" height="30" as="geometry" />
        </mxCell>
        <mxCell id="DyulirkdYvsF7uV6ZFTi-102" value="g1" style="text;html=1;align=center;verticalAlign=middle;resizable=0;points=[];autosize=1;strokeColor=none;fillColor=none;" vertex="1" parent="1">
          <mxGeometry x="546.7700000000001" y="1135.7300000000002" width="40" height="30" as="geometry" />
        </mxCell>
        <mxCell id="DyulirkdYvsF7uV6ZFTi-103" value="g1" style="text;html=1;align=center;verticalAlign=middle;resizable=0;points=[];autosize=1;strokeColor=none;fillColor=none;" vertex="1" parent="1">
          <mxGeometry x="548.02" y="1280.0000000000002" width="40" height="30" as="geometry" />
        </mxCell>
        <mxCell id="DyulirkdYvsF7uV6ZFTi-105" value="g1" style="text;html=1;align=center;verticalAlign=middle;resizable=0;points=[];autosize=1;strokeColor=none;fillColor=none;" vertex="1" parent="1">
          <mxGeometry x="484.04999999999995" y="1290.7200000000003" width="40" height="30" as="geometry" />
        </mxCell>
        <mxCell id="DyulirkdYvsF7uV6ZFTi-106" value="g1" style="text;html=1;align=center;verticalAlign=middle;resizable=0;points=[];autosize=1;strokeColor=none;fillColor=none;" vertex="1" parent="1">
          <mxGeometry x="484.04999999999995" y="1352.8400000000001" width="40" height="30" as="geometry" />
        </mxCell>
        <mxCell id="DyulirkdYvsF7uV6ZFTi-108" value="g1" style="text;html=1;align=center;verticalAlign=middle;resizable=0;points=[];autosize=1;strokeColor=none;fillColor=none;" vertex="1" parent="1">
          <mxGeometry x="542.68" y="1352.8400000000001" width="40" height="30" as="geometry" />
        </mxCell>
        <mxCell id="DyulirkdYvsF7uV6ZFTi-109" value="g1" style="text;html=1;align=center;verticalAlign=middle;resizable=0;points=[];autosize=1;strokeColor=none;fillColor=none;" vertex="1" parent="1">
          <mxGeometry x="976.06" y="1685.21" width="40" height="30" as="geometry" />
        </mxCell>
        <mxCell id="DyulirkdYvsF7uV6ZFTi-110" value="g1" style="text;html=1;align=center;verticalAlign=middle;resizable=0;points=[];autosize=1;strokeColor=none;fillColor=none;" vertex="1" parent="1">
          <mxGeometry x="1057.9" y="1864.5200000000002" width="40" height="30" as="geometry" />
        </mxCell>
        <mxCell id="DyulirkdYvsF7uV6ZFTi-111" value="g1" style="text;html=1;align=center;verticalAlign=middle;resizable=0;points=[];autosize=1;strokeColor=none;fillColor=none;" vertex="1" parent="1">
          <mxGeometry x="1196.2" y="1907.3500000000001" width="40" height="30" as="geometry" />
        </mxCell>
        <mxCell id="DyulirkdYvsF7uV6ZFTi-112" value="g1" style="text;html=1;align=center;verticalAlign=middle;resizable=0;points=[];autosize=1;strokeColor=none;fillColor=none;" vertex="1" parent="1">
          <mxGeometry x="1380" y="1907.3500000000001" width="40" height="30" as="geometry" />
        </mxCell>
        <mxCell id="DyulirkdYvsF7uV6ZFTi-113" value="g1" style="text;html=1;align=center;verticalAlign=middle;resizable=0;points=[];autosize=1;strokeColor=none;fillColor=none;" vertex="1" parent="1">
          <mxGeometry x="1523.96" y="1877.3500000000001" width="40" height="30" as="geometry" />
        </mxCell>
        <mxCell id="DyulirkdYvsF7uV6ZFTi-114" value="g1" style="text;html=1;align=center;verticalAlign=middle;resizable=0;points=[];autosize=1;strokeColor=none;fillColor=none;" vertex="1" parent="1">
          <mxGeometry x="2037.39" y="1877.3500000000001" width="40" height="30" as="geometry" />
        </mxCell>
        <mxCell id="DyulirkdYvsF7uV6ZFTi-115" value="g1" style="text;html=1;align=center;verticalAlign=middle;resizable=0;points=[];autosize=1;strokeColor=none;fillColor=none;" vertex="1" parent="1">
          <mxGeometry x="1820" y="865.8100000000002" width="40" height="30" as="geometry" />
        </mxCell>
        <mxCell id="DyulirkdYvsF7uV6ZFTi-116" value="g1" style="text;html=1;align=center;verticalAlign=middle;resizable=0;points=[];autosize=1;strokeColor=none;fillColor=none;" vertex="1" parent="1">
          <mxGeometry x="2410" y="280.3600000000001" width="40" height="30" as="geometry" />
        </mxCell>
        <mxCell id="DyulirkdYvsF7uV6ZFTi-117" value="g1" style="text;html=1;align=center;verticalAlign=middle;resizable=0;points=[];autosize=1;strokeColor=none;fillColor=none;" vertex="1" parent="1">
          <mxGeometry x="1277.12" y="884.8900000000002" width="40" height="30" as="geometry" />
        </mxCell>
        <mxCell id="DyulirkdYvsF7uV6ZFTi-118" value="g1" style="text;html=1;align=center;verticalAlign=middle;resizable=0;points=[];autosize=1;strokeColor=none;fillColor=none;" vertex="1" parent="1">
          <mxGeometry x="780" y="880.3800000000002" width="40" height="30" as="geometry" />
        </mxCell>
        <mxCell id="DyulirkdYvsF7uV6ZFTi-119" value="g1" style="text;html=1;align=center;verticalAlign=middle;resizable=0;points=[];autosize=1;strokeColor=none;fillColor=none;" vertex="1" parent="1">
          <mxGeometry x="690" y="854.8900000000002" width="40" height="30" as="geometry" />
        </mxCell>
        <mxCell id="DyulirkdYvsF7uV6ZFTi-120" value="g1" style="text;html=1;align=center;verticalAlign=middle;resizable=0;points=[];autosize=1;strokeColor=none;fillColor=none;" vertex="1" parent="1">
          <mxGeometry x="566.27" y="865.8100000000002" width="40" height="30" as="geometry" />
        </mxCell>
        <mxCell id="DyulirkdYvsF7uV6ZFTi-121" value="g1" style="text;html=1;align=center;verticalAlign=middle;resizable=0;points=[];autosize=1;strokeColor=none;fillColor=none;" vertex="1" parent="1">
          <mxGeometry x="60" y="865.8100000000002" width="40" height="30" as="geometry" />
        </mxCell>
        <mxCell id="DyulirkdYvsF7uV6ZFTi-122" value="g1" style="text;html=1;align=center;verticalAlign=middle;resizable=0;points=[];autosize=1;strokeColor=none;fillColor=none;" vertex="1" parent="1">
          <mxGeometry x="303.91999999999996" y="534.4100000000002" width="40" height="30" as="geometry" />
        </mxCell>
        <mxCell id="DyulirkdYvsF7uV6ZFTi-123" value="g1" style="text;html=1;align=center;verticalAlign=middle;resizable=0;points=[];autosize=1;strokeColor=none;fillColor=none;" vertex="1" parent="1">
          <mxGeometry x="260" y="100.00000000000023" width="40" height="30" as="geometry" />
        </mxCell>
        <mxCell id="DyulirkdYvsF7uV6ZFTi-124" value="g1" style="text;html=1;align=center;verticalAlign=middle;resizable=0;points=[];autosize=1;strokeColor=none;fillColor=none;" vertex="1" parent="1">
          <mxGeometry x="187.57999999999998" y="110.00000000000023" width="40" height="30" as="geometry" />
        </mxCell>
        <mxCell id="DyulirkdYvsF7uV6ZFTi-125" value="g1" style="text;html=1;align=center;verticalAlign=middle;resizable=0;points=[];autosize=1;strokeColor=none;fillColor=none;" vertex="1" parent="1">
          <mxGeometry x="1990" y="2971.18" width="40" height="30" as="geometry" />
        </mxCell>
        <mxCell id="DyulirkdYvsF7uV6ZFTi-126" value="g1" style="text;html=1;align=center;verticalAlign=middle;resizable=0;points=[];autosize=1;strokeColor=none;fillColor=none;" vertex="1" parent="1">
          <mxGeometry x="2740" y="2580" width="40" height="30" as="geometry" />
        </mxCell>
        <mxCell id="DyulirkdYvsF7uV6ZFTi-128" value="g1-2" style="text;html=1;align=center;verticalAlign=middle;resizable=0;points=[];autosize=1;strokeColor=none;fillColor=none;" vertex="1" parent="1">
          <mxGeometry x="460.59" y="1440.7" width="50" height="30" as="geometry" />
        </mxCell>
        <mxCell id="DyulirkdYvsF7uV6ZFTi-130" value="g20-24" style="text;html=1;align=center;verticalAlign=middle;resizable=0;points=[];autosize=1;strokeColor=none;fillColor=none;" vertex="1" parent="1">
          <mxGeometry x="474.59" y="1501.18" width="60" height="30" as="geometry" />
        </mxCell>
        <mxCell id="DyulirkdYvsF7uV6ZFTi-131" value="g1-4" style="text;html=1;align=center;verticalAlign=middle;resizable=0;points=[];autosize=1;strokeColor=none;fillColor=none;" vertex="1" parent="1">
          <mxGeometry x="461.77" y="1426" width="50" height="30" as="geometry" />
        </mxCell>
        <mxCell id="DyulirkdYvsF7uV6ZFTi-132" value="g1-7&lt;div&gt;&lt;br&gt;&lt;/div&gt;" style="text;html=1;align=center;verticalAlign=middle;resizable=0;points=[];autosize=1;strokeColor=none;fillColor=none;" vertex="1" parent="1">
          <mxGeometry x="506.04999999999995" y="1396.18" width="50" height="40" as="geometry" />
        </mxCell>
        <mxCell id="DyulirkdYvsF7uV6ZFTi-133" value="g8-&lt;div&gt;13&lt;/div&gt;" style="text;html=1;align=center;verticalAlign=middle;resizable=0;points=[];autosize=1;strokeColor=none;fillColor=none;" vertex="1" parent="1">
          <mxGeometry x="606.27" y="1440.7" width="40" height="40" as="geometry" />
        </mxCell>
        <mxCell id="DyulirkdYvsF7uV6ZFTi-134" value="g14-19" style="text;html=1;align=center;verticalAlign=middle;resizable=0;points=[];autosize=1;strokeColor=none;fillColor=none;" vertex="1" parent="1">
          <mxGeometry x="562.0500000000001" y="1508.18" width="60" height="30" as="geometry" />
        </mxCell>
        <mxCell id="DyulirkdYvsF7uV6ZFTi-135" value="g1-5" style="text;html=1;align=center;verticalAlign=middle;resizable=0;points=[];autosize=1;strokeColor=none;fillColor=none;" vertex="1" parent="1">
          <mxGeometry x="485.68" y="1515.7" width="50" height="30" as="geometry" />
        </mxCell>
        <mxCell id="tRINOcNfiSjKhL-tqEIE-1" value="" style="shape=mxgraph.cisco.misc.access_point;html=1;pointerEvents=1;dashed=0;fillColor=#036897;strokeColor=#ffffff;strokeWidth=2;verticalLabelPosition=bottom;verticalAlign=top;align=center;outlineConnect=0;" vertex="1" parent="1">
          <mxGeometry x="549.27" y="1945.84" width="75" height="34" as="geometry" />
        </mxCell>
        <mxCell id="tRINOcNfiSjKhL-tqEIE-2" value="" style="shape=mxgraph.cisco.misc.access_point;html=1;pointerEvents=1;dashed=0;fillColor=#036897;strokeColor=#ffffff;strokeWidth=2;verticalLabelPosition=bottom;verticalAlign=top;align=center;outlineConnect=0;" vertex="1" parent="1">
          <mxGeometry x="2494.23" y="1470.7" width="75" height="34" as="geometry" />
        </mxCell>
        <mxCell id="tRINOcNfiSjKhL-tqEIE-3" style="rounded=0;orthogonalLoop=1;jettySize=auto;html=1;endArrow=none;endFill=0;fillColor=#dae8fc;strokeColor=#6c8ebf;fontSize=45;strokeWidth=4;dashed=1;exitX=0.952;exitY=0.931;exitDx=0;exitDy=0;exitPerimeter=0;" edge="1" parent="1" source="DyulirkdYvsF7uV6ZFTi-7">
          <mxGeometry relative="1" as="geometry">
            <mxPoint x="606.27" y="1742.67" as="sourcePoint" />
            <mxPoint x="606.27" y="1942.67" as="targetPoint" />
            <Array as="points" />
          </mxGeometry>
        </mxCell>
        <mxCell id="tRINOcNfiSjKhL-tqEIE-4" style="rounded=0;orthogonalLoop=1;jettySize=auto;html=1;endArrow=none;endFill=0;fillColor=#dae8fc;strokeColor=#6c8ebf;fontSize=45;strokeWidth=4;dashed=1;entryX=0;entryY=0.5;entryDx=0;entryDy=0;entryPerimeter=0;" edge="1" parent="1" target="tRINOcNfiSjKhL-tqEIE-2">
          <mxGeometry relative="1" as="geometry">
            <mxPoint x="2458.8" y="1485.2099999999998" as="sourcePoint" />
            <mxPoint x="2458.8" y="1685.2099999999998" as="targetPoint" />
            <Array as="points" />
          </mxGeometry>
        </mxCell>
        <mxCell id="tRINOcNfiSjKhL-tqEIE-5" value="g1" style="text;html=1;align=center;verticalAlign=middle;resizable=0;points=[];autosize=1;strokeColor=none;fillColor=none;" vertex="1" parent="1">
          <mxGeometry x="2459.98" y="1485.7000000000003" width="40" height="30" as="geometry" />
        </mxCell>
        <mxCell id="tRINOcNfiSjKhL-tqEIE-6" value="g1" style="text;html=1;align=center;verticalAlign=middle;resizable=0;points=[];autosize=1;strokeColor=none;fillColor=none;" vertex="1" parent="1">
          <mxGeometry x="572.0500000000004" y="1915.8400000000001" width="40" height="30" as="geometry" />
        </mxCell>
      </root>
    </mxGraphModel>
  </diagram>
</mxfile>
